<mxfile host="app.diagrams.net" agent="Mozilla/5.0 (Windows NT 10.0; Win64; x64) AppleWebKit/537.36 (KHTML, like Gecko) Chrome/135.0.0.0 Safari/537.36 OPR/120.0.0.0" version="28.1.2">
  <diagram name="State-Machine-MCP-Driver-Architecture" id="Zrr0JR-M7fTUcEmwY-xD">
    <mxGraphModel dx="13567" dy="11807" grid="1" gridSize="10" guides="1" tooltips="1" connect="1" arrows="1" fold="1" page="1" pageScale="1" pageWidth="827" pageHeight="1169" math="0" shadow="0">
      <root>
        <mxCell id="0" />
        <mxCell id="1" parent="0" />
        <mxCell id="ouFma8THzdqMKJ_TYZ1r-1" value="State Machine MCP Driver - Arquitectura Completa" style="text;html=1;strokeColor=none;fillColor=none;align=center;verticalAlign=middle;whiteSpace=wrap;rounded=0;fontSize=24;fontStyle=1;fontColor=#000000;" vertex="1" parent="1">
          <mxGeometry x="470" y="-1720" width="600" height="40" as="geometry" />
        </mxCell>
        <mxCell id="ouFma8THzdqMKJ_TYZ1r-2" value="MCPLauncherServer&lt;br&gt;(Core Central)" style="rounded=1;whiteSpace=wrap;html=1;fontSize=16;fontColor=#000000;strokeColor=#000000;fillColor=#FFFAE3;fontStyle=1;" vertex="1" parent="1">
          <mxGeometry x="620" y="-1660" width="300" height="80" as="geometry" />
        </mxCell>
        <mxCell id="ouFma8THzdqMKJ_TYZ1r-3" value="" style="group" vertex="1" connectable="0" parent="1">
          <mxGeometry x="350" y="-1420" width="900" height="300" as="geometry" />
        </mxCell>
        <mxCell id="ouFma8THzdqMKJ_TYZ1r-4" value="" style="rounded=1;whiteSpace=wrap;html=1;fillColor=#E8F5E9;strokeColor=#4CAF50;strokeWidth=3;dashed=1;" vertex="1" parent="ouFma8THzdqMKJ_TYZ1r-3">
          <mxGeometry width="900" height="300" as="geometry" />
        </mxCell>
        <mxCell id="ouFma8THzdqMKJ_TYZ1r-5" value="RxJS ORCHESTRATOR + CHANNEL SYSTEM" style="text;html=1;strokeColor=none;fillColor=none;align=center;verticalAlign=middle;whiteSpace=wrap;rounded=0;fontSize=18;fontStyle=1;" vertex="1" parent="ouFma8THzdqMKJ_TYZ1r-3">
          <mxGeometry x="250" y="15" width="400" height="30" as="geometry" />
        </mxCell>
        <mxCell id="ouFma8THzdqMKJ_TYZ1r-6" value="Orchestrator&lt;br&gt;(RxJS Bus)" style="rounded=1;whiteSpace=wrap;html=1;fontSize=14;fillColor=#FFFFFF;strokeColor=#000000;fontStyle=1;" vertex="1" parent="ouFma8THzdqMKJ_TYZ1r-3">
          <mxGeometry x="380" y="60" width="140" height="80" as="geometry" />
        </mxCell>
        <mxCell id="ouFma8THzdqMKJ_TYZ1r-7" value="APP CHANNEL" style="rounded=1;whiteSpace=wrap;html=1;fontSize=12;fillColor=#60a917;strokeColor=#2D7600;fontColor=#ffffff;fontStyle=1;" vertex="1" parent="ouFma8THzdqMKJ_TYZ1r-3">
          <mxGeometry x="80" y="180" width="120" height="50" as="geometry" />
        </mxCell>
        <mxCell id="ouFma8THzdqMKJ_TYZ1r-8" value="AppChannelAgent&lt;br&gt;(state-manager)" style="rounded=1;whiteSpace=wrap;html=1;fontSize=10;fillColor=#60a917;strokeColor=#2D7600;fontColor=#ffffff;" vertex="1" parent="ouFma8THzdqMKJ_TYZ1r-3">
          <mxGeometry x="80" y="240" width="120" height="40" as="geometry" />
        </mxCell>
        <mxCell id="ouFma8THzdqMKJ_TYZ1r-9" value="SYS CHANNEL" style="rounded=1;whiteSpace=wrap;html=1;fontSize=12;fillColor=#FFE0B2;strokeColor=#FF6D00;fontStyle=1;" vertex="1" parent="ouFma8THzdqMKJ_TYZ1r-3">
          <mxGeometry x="390" y="180" width="120" height="50" as="geometry" />
        </mxCell>
        <mxCell id="ouFma8THzdqMKJ_TYZ1r-10" value="SysChannelAgent&lt;br&gt;(system-monitor)" style="rounded=1;whiteSpace=wrap;html=1;fontSize=10;fillColor=#FFE0B2;strokeColor=#FF6D00;" vertex="1" parent="ouFma8THzdqMKJ_TYZ1r-3">
          <mxGeometry x="390" y="240" width="120" height="40" as="geometry" />
        </mxCell>
        <mxCell id="ouFma8THzdqMKJ_TYZ1r-11" value="UI CHANNEL" style="rounded=1;whiteSpace=wrap;html=1;fontSize=12;fillColor=#1ba1e2;strokeColor=#006EAF;fontColor=#ffffff;fontStyle=1;" vertex="1" parent="ouFma8THzdqMKJ_TYZ1r-3">
          <mxGeometry x="700" y="180" width="120" height="50" as="geometry" />
        </mxCell>
        <mxCell id="ouFma8THzdqMKJ_TYZ1r-12" value="UIChannelAgent&lt;br&gt;(ui-controller)" style="rounded=1;whiteSpace=wrap;html=1;fontSize=10;fillColor=#1ba1e2;strokeColor=#006EAF;fontColor=#ffffff;" vertex="1" parent="ouFma8THzdqMKJ_TYZ1r-3">
          <mxGeometry x="700" y="240" width="120" height="40" as="geometry" />
        </mxCell>
        <mxCell id="ouFma8THzdqMKJ_TYZ1r-24" value="" style="group" vertex="1" connectable="0" parent="1">
          <mxGeometry x="400" y="-1080" width="800" height="550" as="geometry" />
        </mxCell>
        <mxCell id="ouFma8THzdqMKJ_TYZ1r-25" value="" style="rounded=1;whiteSpace=wrap;html=1;fillColor=#647687;strokeColor=#314354;strokeWidth=3;dashed=1;fontColor=#ffffff;" vertex="1" parent="ouFma8THzdqMKJ_TYZ1r-24">
          <mxGeometry width="800" height="550" as="geometry" />
        </mxCell>
        <mxCell id="ouFma8THzdqMKJ_TYZ1r-26" value="GAMIFICATION UI SYSTEMS" style="text;html=1;strokeColor=none;fillColor=none;align=center;verticalAlign=middle;whiteSpace=wrap;rounded=0;fontSize=18;fontStyle=1;fontColor=#ffffff;" vertex="1" parent="ouFma8THzdqMKJ_TYZ1r-24">
          <mxGeometry x="200" y="15" width="400" height="30" as="geometry" />
        </mxCell>
        <mxCell id="ouFma8THzdqMKJ_TYZ1r-27" value="GamificationUI&lt;br&gt;(Base Class)" style="rounded=1;whiteSpace=wrap;html=1;fontSize=14;fillColor=#FFFFFF;strokeColor=#314354;fontStyle=1;" vertex="1" parent="ouFma8THzdqMKJ_TYZ1r-24">
          <mxGeometry x="300" y="60" width="200" height="60" as="geometry" />
        </mxCell>
        <mxCell id="ouFma8THzdqMKJ_TYZ1r-28" value="ConsoleGamificationUI" style="rounded=1;whiteSpace=wrap;html=1;fontSize=12;fillColor=#F5F5F5;strokeColor=#666666;fontStyle=1;" vertex="1" parent="ouFma8THzdqMKJ_TYZ1r-24">
          <mxGeometry x="50" y="160" width="180" height="50" as="geometry" />
        </mxCell>
        <mxCell id="ouFma8THzdqMKJ_TYZ1r-29" value="• Readline interface&lt;br&gt;• Color output&lt;br&gt;• Agent postulations&lt;br&gt;• Command handling" style="rounded=1;whiteSpace=wrap;html=1;fontSize=9;fillColor=#F5F5F5;strokeColor=#666666;" vertex="1" parent="ouFma8THzdqMKJ_TYZ1r-24">
          <mxGeometry x="50" y="220" width="180" height="80" as="geometry" />
        </mxCell>
        <mxCell id="ouFma8THzdqMKJ_TYZ1r-30" value="HTML5GamificationUI" style="rounded=1;whiteSpace=wrap;html=1;fontSize=12;fillColor=#F5F5F5;strokeColor=#666666;fontStyle=1;" vertex="1" parent="ouFma8THzdqMKJ_TYZ1r-24">
          <mxGeometry x="310" y="160" width="180" height="50" as="geometry" />
        </mxCell>
        <mxCell id="ouFma8THzdqMKJ_TYZ1r-31" value="• Express server&lt;br&gt;• Server-Sent Events&lt;br&gt;• Web interface&lt;br&gt;• Real-time updates" style="rounded=1;whiteSpace=wrap;html=1;fontSize=9;fillColor=#F5F5F5;strokeColor=#666666;" vertex="1" parent="ouFma8THzdqMKJ_TYZ1r-24">
          <mxGeometry x="310" y="220" width="180" height="80" as="geometry" />
        </mxCell>
        <mxCell id="ouFma8THzdqMKJ_TYZ1r-32" value="MultiUIGameManager" style="rounded=1;whiteSpace=wrap;html=1;fontSize=12;fillColor=#F5F5F5;strokeColor=#666666;fontStyle=1;" vertex="1" parent="ouFma8THzdqMKJ_TYZ1r-24">
          <mxGeometry x="570" y="160" width="180" height="50" as="geometry" />
        </mxCell>
        <mxCell id="ouFma8THzdqMKJ_TYZ1r-33" value="• Coordinates multiple UIs&lt;br&gt;• Event synchronization&lt;br&gt;• State management&lt;br&gt;• RxJS streams" style="rounded=1;whiteSpace=wrap;html=1;fontSize=9;fillColor=#F5F5F5;strokeColor=#666666;" vertex="1" parent="ouFma8THzdqMKJ_TYZ1r-24">
          <mxGeometry x="570" y="220" width="180" height="80" as="geometry" />
        </mxCell>
        <mxCell id="ouFma8THzdqMKJ_TYZ1r-34" value="RxJS CHANNEL BOTS" style="text;html=1;strokeColor=none;fillColor=none;align=center;verticalAlign=middle;whiteSpace=wrap;rounded=0;fontSize=14;fontStyle=1;fontColor=#ffffff;" vertex="1" parent="ouFma8THzdqMKJ_TYZ1r-24">
          <mxGeometry x="250" y="330" width="300" height="30" as="geometry" />
        </mxCell>
        <mxCell id="ouFma8THzdqMKJ_TYZ1r-35" value="ApoloBot&lt;br&gt;(Strategic Agent)" style="rounded=1;whiteSpace=wrap;html=1;fontSize=11;fillColor=#E8F5E9;strokeColor=#4CAF50;fontStyle=1;" vertex="1" parent="ouFma8THzdqMKJ_TYZ1r-24">
          <mxGeometry x="90" y="380" width="140" height="50" as="geometry" />
        </mxCell>
        <mxCell id="ouFma8THzdqMKJ_TYZ1r-36" value="• RxJS integration&lt;br&gt;• Strategic decisions&lt;br&gt;• Channel communication" style="rounded=1;whiteSpace=wrap;html=1;fontSize=9;fillColor=#E8F5E9;strokeColor=#4CAF50;" vertex="1" parent="ouFma8THzdqMKJ_TYZ1r-24">
          <mxGeometry x="90" y="440" width="140" height="60" as="geometry" />
        </mxCell>
        <mxCell id="ouFma8THzdqMKJ_TYZ1r-37" value="DionisioBot&lt;br&gt;(Creative Agent)" style="rounded=1;whiteSpace=wrap;html=1;fontSize=11;fillColor=#E8F5E9;strokeColor=#4CAF50;fontStyle=1;" vertex="1" parent="ouFma8THzdqMKJ_TYZ1r-24">
          <mxGeometry x="260" y="380" width="140" height="50" as="geometry" />
        </mxCell>
        <mxCell id="ouFma8THzdqMKJ_TYZ1r-38" value="• Creative thinking&lt;br&gt;• Content generation&lt;br&gt;• Artistic features" style="rounded=1;whiteSpace=wrap;html=1;fontSize=9;fillColor=#E8F5E9;strokeColor=#4CAF50;" vertex="1" parent="ouFma8THzdqMKJ_TYZ1r-24">
          <mxGeometry x="260" y="440" width="140" height="60" as="geometry" />
        </mxCell>
        <mxCell id="ouFma8THzdqMKJ_TYZ1r-39" value="JusticeBot&lt;br&gt;(Regulatory Agent)" style="rounded=1;whiteSpace=wrap;html=1;fontSize=11;fillColor=#E8F5E9;strokeColor=#4CAF50;fontStyle=1;" vertex="1" parent="ouFma8THzdqMKJ_TYZ1r-24">
          <mxGeometry x="430" y="380" width="140" height="50" as="geometry" />
        </mxCell>
        <mxCell id="ouFma8THzdqMKJ_TYZ1r-40" value="• Rule enforcement&lt;br&gt;• Compliance checks&lt;br&gt;• Quality assurance" style="rounded=1;whiteSpace=wrap;html=1;fontSize=9;fillColor=#E8F5E9;strokeColor=#4CAF50;" vertex="1" parent="ouFma8THzdqMKJ_TYZ1r-24">
          <mxGeometry x="430" y="440" width="140" height="60" as="geometry" />
        </mxCell>
        <mxCell id="ouFma8THzdqMKJ_TYZ1r-41" value="UserSimulator&lt;br&gt;(Testing Agent)" style="rounded=1;whiteSpace=wrap;html=1;fontSize=11;fillColor=#E8F5E9;strokeColor=#4CAF50;fontStyle=1;" vertex="1" parent="ouFma8THzdqMKJ_TYZ1r-24">
          <mxGeometry x="600" y="380" width="140" height="50" as="geometry" />
        </mxCell>
        <mxCell id="ouFma8THzdqMKJ_TYZ1r-42" value="• Automated testing&lt;br&gt;• User simulation&lt;br&gt;• Behavior patterns" style="rounded=1;whiteSpace=wrap;html=1;fontSize=9;fillColor=#E8F5E9;strokeColor=#4CAF50;" vertex="1" parent="ouFma8THzdqMKJ_TYZ1r-24">
          <mxGeometry x="600" y="440" width="140" height="60" as="geometry" />
        </mxCell>
        <mxCell id="ouFma8THzdqMKJ_TYZ1r-43" value="" style="group" vertex="1" connectable="0" parent="1">
          <mxGeometry y="-200" width="1800" height="300" as="geometry" />
        </mxCell>
        <mxCell id="ouFma8THzdqMKJ_TYZ1r-44" value="" style="rounded=1;whiteSpace=wrap;html=1;fillColor=#F3E5F5;strokeColor=#6A1B9A;strokeWidth=3;dashed=1;" vertex="1" parent="ouFma8THzdqMKJ_TYZ1r-43">
          <mxGeometry width="1800" height="300" as="geometry" />
        </mxCell>
        <mxCell id="ouFma8THzdqMKJ_TYZ1r-45" value="MCP SERVERS ECOSYSTEM" style="text;html=1;strokeColor=none;fillColor=none;align=center;verticalAlign=middle;whiteSpace=wrap;rounded=0;fontSize=18;fontStyle=1;" vertex="1" parent="ouFma8THzdqMKJ_TYZ1r-43">
          <mxGeometry x="650" y="15" width="500" height="30" as="geometry" />
        </mxCell>
        <mxCell id="ouFma8THzdqMKJ_TYZ1r-46" value="DevOpsServer" style="rounded=1;whiteSpace=wrap;html=1;fontSize=14;fillColor=#FFFFFF;strokeColor=#6A1B9A;fontStyle=1;" vertex="1" parent="ouFma8THzdqMKJ_TYZ1r-43">
          <mxGeometry x="50" y="70" width="200" height="60" as="geometry" />
        </mxCell>
        <mxCell id="ouFma8THzdqMKJ_TYZ1r-47" value="• DevOps automation&lt;br&gt;• Plugin system&lt;br&gt;• ProserpinaBot integration&lt;br&gt;• Content management&lt;br&gt;• Port: 3003" style="rounded=1;whiteSpace=wrap;html=1;fontSize=9;fillColor=#F3E5F5;strokeColor=#6A1B9A;" vertex="1" parent="ouFma8THzdqMKJ_TYZ1r-43">
          <mxGeometry x="50" y="140" width="200" height="100" as="geometry" />
        </mxCell>
        <mxCell id="ouFma8THzdqMKJ_TYZ1r-48" value="MCPStateMachineServer&lt;br&gt;(X+1 MCP Machine)" style="rounded=1;whiteSpace=wrap;html=1;fontSize=14;fillColor=#FFFFFF;strokeColor=#6A1B9A;fontStyle=1;" vertex="1" parent="ouFma8THzdqMKJ_TYZ1r-43">
          <mxGeometry x="300" y="70" width="200" height="60" as="geometry" />
        </mxCell>
        <mxCell id="ouFma8THzdqMKJ_TYZ1r-49" value="• State management&lt;br&gt;• Game logic&lt;br&gt;• Pattern recognition&lt;br&gt;• Runtime integration&lt;br&gt;• Port: 3001" style="rounded=1;whiteSpace=wrap;html=1;fontSize=9;fillColor=#F3E5F5;strokeColor=#6A1B9A;" vertex="1" parent="ouFma8THzdqMKJ_TYZ1r-43">
          <mxGeometry x="300" y="140" width="200" height="100" as="geometry" />
        </mxCell>
        <mxCell id="ouFma8THzdqMKJ_TYZ1r-50" value="MCPWikiBrowserServer" style="rounded=1;whiteSpace=wrap;html=1;fontSize=14;fillColor=#FFFFFF;strokeColor=#6A1B9A;fontStyle=1;" vertex="1" parent="ouFma8THzdqMKJ_TYZ1r-43">
          <mxGeometry x="550" y="70" width="200" height="60" as="geometry" />
        </mxCell>
        <mxCell id="ouFma8THzdqMKJ_TYZ1r-51" value="• Wikipedia browsing&lt;br&gt;• Content retrieval&lt;br&gt;• Information search&lt;br&gt;• Research tools&lt;br&gt;• Port: 3002" style="rounded=1;whiteSpace=wrap;html=1;fontSize=9;fillColor=#F3E5F5;strokeColor=#6A1B9A;" vertex="1" parent="ouFma8THzdqMKJ_TYZ1r-43">
          <mxGeometry x="550" y="140" width="200" height="100" as="geometry" />
        </mxCell>
        <mxCell id="ouFma8THzdqMKJ_TYZ1r-52" value="MCPDriverAdapter" style="rounded=1;whiteSpace=wrap;html=1;fontSize=14;fillColor=#FFFFFF;strokeColor=#6A1B9A;fontStyle=1;" vertex="1" parent="ouFma8THzdqMKJ_TYZ1r-43">
          <mxGeometry x="800" y="70" width="200" height="60" as="geometry" />
        </mxCell>
        <mxCell id="ouFma8THzdqMKJ_TYZ1r-53" value="• MCP protocol&lt;br&gt;• Server connections&lt;br&gt;• Tool integration&lt;br&gt;• Communication layer&lt;br&gt;• WebSocket client" style="rounded=1;whiteSpace=wrap;html=1;fontSize=9;fillColor=#F3E5F5;strokeColor=#6A1B9A;" vertex="1" parent="ouFma8THzdqMKJ_TYZ1r-43">
          <mxGeometry x="800" y="140" width="200" height="100" as="geometry" />
        </mxCell>
        <mxCell id="ouFma8THzdqMKJ_TYZ1r-54" value="Runtime&lt;br&gt;(Game Engine)" style="rounded=1;whiteSpace=wrap;html=1;fontSize=14;fillColor=#FFFFFF;strokeColor=#6A1B9A;fontStyle=1;" vertex="1" parent="ouFma8THzdqMKJ_TYZ1r-43">
          <mxGeometry x="1050" y="70" width="200" height="60" as="geometry" />
        </mxCell>
        <mxCell id="ouFma8THzdqMKJ_TYZ1r-55" value="• Game state&lt;br&gt;• Agent management&lt;br&gt;• Event system&lt;br&gt;• State transitions&lt;br&gt;• Core engine" style="rounded=1;whiteSpace=wrap;html=1;fontSize=9;fillColor=#F3E5F5;strokeColor=#6A1B9A;" vertex="1" parent="ouFma8THzdqMKJ_TYZ1r-43">
          <mxGeometry x="1050" y="140" width="200" height="100" as="geometry" />
        </mxCell>
        <mxCell id="ouFma8THzdqMKJ_TYZ1r-56" value="Additional Servers&lt;br&gt;(Extensible)" style="rounded=1;whiteSpace=wrap;html=1;fontSize=14;fillColor=#FFFFFF;strokeColor=#6A1B9A;fontStyle=1;dashed=1;" vertex="1" parent="ouFma8THzdqMKJ_TYZ1r-43">
          <mxGeometry x="1300" y="70" width="200" height="60" as="geometry" />
        </mxCell>
        <mxCell id="ouFma8THzdqMKJ_TYZ1r-57" value="• Plugin architecture&lt;br&gt;• Custom servers&lt;br&gt;• External integrations&lt;br&gt;• Future expansions&lt;br&gt;• Configurable ports" style="rounded=1;whiteSpace=wrap;html=1;fontSize=9;fillColor=#F3E5F5;strokeColor=#6A1B9A;dashed=1;" vertex="1" parent="ouFma8THzdqMKJ_TYZ1r-43">
          <mxGeometry x="1300" y="140" width="200" height="100" as="geometry" />
        </mxCell>
        <mxCell id="ouFma8THzdqMKJ_TYZ1r-60" style="edgeStyle=orthogonalEdgeStyle;rounded=0;orthogonalLoop=1;jettySize=auto;html=1;strokeColor=#2D7600;strokeWidth=2;endArrow=classic;endFill=1;dashed=1;" edge="1" parent="1" source="ouFma8THzdqMKJ_TYZ1r-6" target="ouFma8THzdqMKJ_TYZ1r-7">
          <mxGeometry relative="1" as="geometry" />
        </mxCell>
        <mxCell id="ouFma8THzdqMKJ_TYZ1r-61" style="edgeStyle=orthogonalEdgeStyle;rounded=0;orthogonalLoop=1;jettySize=auto;html=1;strokeColor=#FF6D00;strokeWidth=2;endArrow=classic;endFill=1;dashed=1;" edge="1" parent="1" source="ouFma8THzdqMKJ_TYZ1r-6" target="ouFma8THzdqMKJ_TYZ1r-9">
          <mxGeometry relative="1" as="geometry" />
        </mxCell>
        <mxCell id="ouFma8THzdqMKJ_TYZ1r-62" style="edgeStyle=orthogonalEdgeStyle;rounded=0;orthogonalLoop=1;jettySize=auto;html=1;strokeColor=#006EAF;strokeWidth=2;endArrow=classic;endFill=1;dashed=1;" edge="1" parent="1" source="ouFma8THzdqMKJ_TYZ1r-6" target="ouFma8THzdqMKJ_TYZ1r-11">
          <mxGeometry relative="1" as="geometry" />
        </mxCell>
        <mxCell id="ouFma8THzdqMKJ_TYZ1r-75" value="&lt;b&gt;ARQUITECTURA DEL SISTEMA&lt;/b&gt;&lt;br&gt;&lt;br&gt;• &lt;b&gt;MCPLauncherServer&lt;/b&gt;: Core central que gestiona todo el ecosistema&lt;br&gt;• &lt;b&gt;RxJS Orchestrator&lt;/b&gt;: Bus de comunicación reactivo con 3 canales&lt;br&gt;• &lt;b&gt;AlephScript Clients&lt;/b&gt;: Bots Socket.IO (Proserpina, Orfeo, Euridice)&lt;br&gt;• &lt;b&gt;Channel Agents&lt;/b&gt;: Gestores especializados por canal&lt;br&gt;• &lt;b&gt;RxJS Bots&lt;/b&gt;: Agentes inteligentes (Apolo, Dionisio, Justice)&lt;br&gt;• &lt;b&gt;Gamification UIs&lt;/b&gt;: Interfaces console y web&lt;br&gt;• &lt;b&gt;MCP Servers&lt;/b&gt;: Servidores especializados con herramientas" style="text;html=1;strokeColor=#000000;fillColor=#f8f9fa;align=left;verticalAlign=top;whiteSpace=wrap;rounded=1;fontSize=11;spacingLeft=15;spacingTop=15;" vertex="1" parent="1">
          <mxGeometry x="360" y="360" width="700" height="180" as="geometry" />
        </mxCell>
        <mxCell id="ouFma8THzdqMKJ_TYZ1r-76" value="&lt;b&gt;STACK TECNOLÓGICO&lt;/b&gt;&lt;br&gt;&lt;br&gt;• &lt;b&gt;Node.js + TypeScript&lt;/b&gt;&lt;br&gt;• &lt;b&gt;RxJS&lt;/b&gt; - Reactive programming&lt;br&gt;• &lt;b&gt;Socket.IO&lt;/b&gt; - Real-time communication&lt;br&gt;• &lt;b&gt;Express&lt;/b&gt; - Web server&lt;br&gt;• &lt;b&gt;MCP Protocol&lt;/b&gt; - Tool integration&lt;br&gt;• &lt;b&gt;Unity C#&lt;/b&gt; - Game integration&lt;br&gt;• &lt;b&gt;HTML5 + SSE&lt;/b&gt; - Web UI" style="text;html=1;strokeColor=#000000;fillColor=#f8f9fa;align=left;verticalAlign=top;whiteSpace=wrap;rounded=1;fontSize=11;spacingLeft=15;spacingTop=15;" vertex="1" parent="1">
          <mxGeometry x="1110" y="360" width="300" height="180" as="geometry" />
        </mxCell>
        <mxCell id="ouFma8THzdqMKJ_TYZ1r-77" value="&lt;b&gt;PUERTOS Y DESPLIEGUE&lt;/b&gt;&lt;br&gt;&lt;br&gt;• &lt;b&gt;MCP Launcher&lt;/b&gt;: 3050&lt;br&gt;• &lt;b&gt;State Machine&lt;/b&gt;: 3001&lt;br&gt;• &lt;b&gt;Wiki Browser&lt;/b&gt;: 3002&lt;br&gt;• &lt;b&gt;DevOps Server&lt;/b&gt;: 3003&lt;br&gt;• &lt;b&gt;HTML5 UI&lt;/b&gt;: 8080&lt;br&gt;• &lt;b&gt;Socket.IO&lt;/b&gt;: 3000&lt;br&gt;• &lt;b&gt;VS Code MCP&lt;/b&gt;: Auto-config" style="text;html=1;strokeColor=#000000;fillColor=#f8f9fa;align=left;verticalAlign=top;whiteSpace=wrap;rounded=1;fontSize=11;spacingLeft=15;spacingTop=15;" vertex="1" parent="1">
          <mxGeometry x="1460" y="360" width="300" height="180" as="geometry" />
        </mxCell>
        <mxCell id="ouFma8THzdqMKJ_TYZ1r-78" value="" style="group" vertex="1" connectable="0" parent="1">
          <mxGeometry x="350" y="-490" width="900" height="200" as="geometry" />
        </mxCell>
        <mxCell id="ouFma8THzdqMKJ_TYZ1r-79" value="" style="rounded=1;whiteSpace=wrap;html=1;fillColor=#E1F5FE;strokeColor=#01579B;strokeWidth=3;dashed=1;" vertex="1" parent="ouFma8THzdqMKJ_TYZ1r-78">
          <mxGeometry width="900" height="200" as="geometry" />
        </mxCell>
        <mxCell id="ouFma8THzdqMKJ_TYZ1r-80" value="ALEPHSCRIPT CLIENTS (Socket.IO)" style="text;html=1;strokeColor=none;fillColor=none;align=center;verticalAlign=middle;whiteSpace=wrap;rounded=0;fontSize=18;fontStyle=1;" vertex="1" parent="ouFma8THzdqMKJ_TYZ1r-78">
          <mxGeometry x="250" y="15" width="400" height="30" as="geometry" />
        </mxCell>
        <mxCell id="ouFma8THzdqMKJ_TYZ1r-81" value="ProserpinaBot&lt;br&gt;(DevOps Operations)" style="rounded=1;whiteSpace=wrap;html=1;fontSize=12;fillColor=#FFFFFF;strokeColor=#01579B;fontStyle=1;" vertex="1" parent="ouFma8THzdqMKJ_TYZ1r-78">
          <mxGeometry x="50" y="60" width="150" height="60" as="geometry" />
        </mxCell>
        <mxCell id="ouFma8THzdqMKJ_TYZ1r-82" value="• Socket.IO Client&lt;br&gt;• /runtime namespace&lt;br&gt;• DevOps features" style="rounded=1;whiteSpace=wrap;html=1;fontSize=9;fillColor=#E1F5FE;strokeColor=#01579B;" vertex="1" parent="ouFma8THzdqMKJ_TYZ1r-78">
          <mxGeometry x="50" y="130" width="150" height="50" as="geometry" />
        </mxCell>
        <mxCell id="ouFma8THzdqMKJ_TYZ1r-83" value="OrfeoBot&lt;br&gt;(Music &amp; Audio)" style="rounded=1;whiteSpace=wrap;html=1;fontSize=12;fillColor=#FFFFFF;strokeColor=#01579B;fontStyle=1;" vertex="1" parent="ouFma8THzdqMKJ_TYZ1r-78">
          <mxGeometry x="250" y="60" width="150" height="60" as="geometry" />
        </mxCell>
        <mxCell id="ouFma8THzdqMKJ_TYZ1r-84" value="• Socket.IO Client&lt;br&gt;• Audio processing&lt;br&gt;• Media features" style="rounded=1;whiteSpace=wrap;html=1;fontSize=9;fillColor=#E1F5FE;strokeColor=#01579B;" vertex="1" parent="ouFma8THzdqMKJ_TYZ1r-78">
          <mxGeometry x="250" y="130" width="150" height="50" as="geometry" />
        </mxCell>
        <mxCell id="ouFma8THzdqMKJ_TYZ1r-85" value="EuridiceBot&lt;br&gt;(Data &amp; Analytics)" style="rounded=1;whiteSpace=wrap;html=1;fontSize=12;fillColor=#FFFFFF;strokeColor=#01579B;fontStyle=1;" vertex="1" parent="ouFma8THzdqMKJ_TYZ1r-78">
          <mxGeometry x="450" y="60" width="150" height="60" as="geometry" />
        </mxCell>
        <mxCell id="ouFma8THzdqMKJ_TYZ1r-86" value="• Socket.IO Client&lt;br&gt;• Data analysis&lt;br&gt;• Analytics features" style="rounded=1;whiteSpace=wrap;html=1;fontSize=9;fillColor=#E1F5FE;strokeColor=#01579B;" vertex="1" parent="ouFma8THzdqMKJ_TYZ1r-78">
          <mxGeometry x="450" y="130" width="150" height="50" as="geometry" />
        </mxCell>
        <mxCell id="ouFma8THzdqMKJ_TYZ1r-87" value="Unity AlephScript&lt;br&gt;(Game Integration)" style="rounded=1;whiteSpace=wrap;html=1;fontSize=12;fillColor=#FFFFFF;strokeColor=#01579B;fontStyle=1;" vertex="1" parent="ouFma8THzdqMKJ_TYZ1r-78">
          <mxGeometry x="650" y="60" width="150" height="60" as="geometry" />
        </mxCell>
        <mxCell id="ouFma8THzdqMKJ_TYZ1r-88" value="• C# Socket.IO&lt;br&gt;• Unity component&lt;br&gt;• Game features" style="rounded=1;whiteSpace=wrap;html=1;fontSize=9;fillColor=#E1F5FE;strokeColor=#01579B;" vertex="1" parent="ouFma8THzdqMKJ_TYZ1r-78">
          <mxGeometry x="650" y="130" width="150" height="50" as="geometry" />
        </mxCell>
        <mxCell id="ouFma8THzdqMKJ_TYZ1r-90" value="" style="group" vertex="1" connectable="0" parent="1">
          <mxGeometry x="30" y="280" width="300" height="260" as="geometry" />
        </mxCell>
        <mxCell id="ouFma8THzdqMKJ_TYZ1r-71" value="" style="rounded=1;whiteSpace=wrap;html=1;fillColor=#f8f9fa;strokeColor=#000000;strokeWidth=2;" vertex="1" parent="ouFma8THzdqMKJ_TYZ1r-90">
          <mxGeometry width="300" height="260" as="geometry" />
        </mxCell>
        <mxCell id="ouFma8THzdqMKJ_TYZ1r-89" value="" style="edgeStyle=orthogonalEdgeStyle;rounded=0;orthogonalLoop=1;jettySize=auto;html=1;" edge="1" parent="ouFma8THzdqMKJ_TYZ1r-90" source="ouFma8THzdqMKJ_TYZ1r-72" target="ouFma8THzdqMKJ_TYZ1r-73">
          <mxGeometry relative="1" as="geometry" />
        </mxCell>
        <mxCell id="ouFma8THzdqMKJ_TYZ1r-72" value="LEYENDA" style="text;html=1;strokeColor=none;fillColor=none;align=center;verticalAlign=middle;whiteSpace=wrap;rounded=0;fontSize=16;fontStyle=1;" vertex="1" parent="ouFma8THzdqMKJ_TYZ1r-90">
          <mxGeometry x="110" y="20" width="100" height="30" as="geometry" />
        </mxCell>
        <mxCell id="ouFma8THzdqMKJ_TYZ1r-73" value="🔶 CANALES RxJS&lt;br&gt;   • App, Sys, UI&lt;br&gt;   • Reactive streams&lt;br&gt;&lt;br&gt;🔷 SOCKET.IO&lt;br&gt;   • AlephScript clients&lt;br&gt;   • Real-time communication&lt;br&gt;&lt;br&gt;🔸 MCP PROTOCOL&lt;br&gt;   • Tool integration&lt;br&gt;   • Server communication" style="text;html=1;strokeColor=none;fillColor=none;align=left;verticalAlign=top;whiteSpace=wrap;rounded=0;fontSize=10;spacingLeft=10;spacingTop=10;" vertex="1" parent="ouFma8THzdqMKJ_TYZ1r-90">
          <mxGeometry x="20" y="60" width="140" height="140" as="geometry" />
        </mxCell>
        <mxCell id="ouFma8THzdqMKJ_TYZ1r-74" value="TIPOS DE MENSAJE:&lt;br&gt;&lt;br&gt;📨 AppMessage&lt;br&gt;   • Business logic&lt;br&gt;   • State transitions&lt;br&gt;&lt;br&gt;📨 SysMessage&lt;br&gt;   • System events&lt;br&gt;   • Health checks&lt;br&gt;&lt;br&gt;📨 UIMessage&lt;br&gt;   • User interactions&lt;br&gt;   • Interface updates" style="text;html=1;strokeColor=none;fillColor=none;align=left;verticalAlign=top;whiteSpace=wrap;rounded=0;fontSize=9;spacingLeft=10;spacingTop=10;" vertex="1" parent="ouFma8THzdqMKJ_TYZ1r-90">
          <mxGeometry x="170" y="60" width="130" height="140" as="geometry" />
        </mxCell>
        <mxCell id="ouFma8THzdqMKJ_TYZ1r-348" value="" style="whiteSpace=wrap;html=1;aspect=fixed;" vertex="1" parent="1">
          <mxGeometry x="2290" y="-2910" width="4300" height="4300" as="geometry" />
        </mxCell>
        <mxCell id="ouFma8THzdqMKJ_TYZ1r-349" value="" style="group" vertex="1" connectable="0" parent="1">
          <mxGeometry x="4200" y="-2490" width="620" height="500" as="geometry" />
        </mxCell>
        <mxCell id="ouFma8THzdqMKJ_TYZ1r-350" value="" style="rounded=1;whiteSpace=wrap;html=1;fillColor=#E1F5FE;strokeColor=#01579B;strokeWidth=3;dashed=1;" vertex="1" parent="ouFma8THzdqMKJ_TYZ1r-349">
          <mxGeometry width="620" height="500" as="geometry" />
        </mxCell>
        <mxCell id="ouFma8THzdqMKJ_TYZ1r-351" value="Socket.IO Server&lt;br&gt;(AlephScript Rooms)" style="text;html=1;strokeColor=none;fillColor=none;align=center;verticalAlign=middle;whiteSpace=wrap;rounded=0;fontSize=16;fontStyle=1;" vertex="1" parent="ouFma8THzdqMKJ_TYZ1r-349">
          <mxGeometry x="120" y="15" width="220" height="30" as="geometry" />
        </mxCell>
        <mxCell id="ouFma8THzdqMKJ_TYZ1r-352" value="room: devops" style="rounded=1;whiteSpace=wrap;html=1;fontSize=11;fillColor=#f8f9fa;strokeColor=#01579B;dashed=1;" vertex="1" parent="ouFma8THzdqMKJ_TYZ1r-349">
          <mxGeometry x="30" y="70" width="180" height="90" as="geometry" />
        </mxCell>
        <mxCell id="ouFma8THzdqMKJ_TYZ1r-353" value="room: statemachine" style="rounded=1;whiteSpace=wrap;html=1;fontSize=11;fillColor=#f8f9fa;strokeColor=#01579B;dashed=1;" vertex="1" parent="ouFma8THzdqMKJ_TYZ1r-349">
          <mxGeometry x="220" y="70" width="180" height="90" as="geometry" />
        </mxCell>
        <mxCell id="ouFma8THzdqMKJ_TYZ1r-354" value="room: wikibrowser" style="rounded=1;whiteSpace=wrap;html=1;fontSize=11;fillColor=#f8f9fa;strokeColor=#01579B;dashed=1;" vertex="1" parent="ouFma8THzdqMKJ_TYZ1r-349">
          <mxGeometry x="410" y="70" width="180" height="90" as="geometry" />
        </mxCell>
        <mxCell id="ouFma8THzdqMKJ_TYZ1r-355" value="room: ui-console" style="rounded=1;whiteSpace=wrap;html=1;fontSize=11;fillColor=#f8f9fa;strokeColor=#01579B;dashed=1;" vertex="1" parent="ouFma8THzdqMKJ_TYZ1r-349">
          <mxGeometry x="30" y="180" width="180" height="90" as="geometry" />
        </mxCell>
        <mxCell id="ouFma8THzdqMKJ_TYZ1r-356" value="room: ui-web" style="rounded=1;whiteSpace=wrap;html=1;fontSize=11;fillColor=#f8f9fa;strokeColor=#01579B;dashed=1;" vertex="1" parent="ouFma8THzdqMKJ_TYZ1r-349">
          <mxGeometry x="220" y="180" width="180" height="90" as="geometry" />
        </mxCell>
        <mxCell id="ouFma8THzdqMKJ_TYZ1r-357" value="room: copilot" style="rounded=1;whiteSpace=wrap;html=1;fontSize=11;fillColor=#f8f9fa;strokeColor=#01579B;dashed=1;" vertex="1" parent="ouFma8THzdqMKJ_TYZ1r-349">
          <mxGeometry x="410" y="180" width="180" height="90" as="geometry" />
        </mxCell>
        <mxCell id="ouFma8THzdqMKJ_TYZ1r-358" value="room: broadcast" style="rounded=1;whiteSpace=wrap;html=1;fontSize=11;fillColor=#f8f9fa;strokeColor=#01579B;dashed=1;" vertex="1" parent="ouFma8THzdqMKJ_TYZ1r-349">
          <mxGeometry x="220" y="300" width="180" height="80" as="geometry" />
        </mxCell>
        <mxCell id="ouFma8THzdqMKJ_TYZ1r-359" value="" style="group" vertex="1" connectable="0" parent="1">
          <mxGeometry x="4270" y="600" width="380" height="320" as="geometry" />
        </mxCell>
        <mxCell id="ouFma8THzdqMKJ_TYZ1r-360" value="" style="rounded=1;whiteSpace=wrap;html=1;fillColor=#E8F5E9;strokeColor=#4CAF50;strokeWidth=3;dashed=1;" vertex="1" parent="ouFma8THzdqMKJ_TYZ1r-359">
          <mxGeometry width="380" height="320" as="geometry" />
        </mxCell>
        <mxCell id="ouFma8THzdqMKJ_TYZ1r-361" value="DevOpsServer" style="text;html=1;strokeColor=none;fillColor=none;align=center;verticalAlign=middle;whiteSpace=wrap;rounded=0;fontSize=16;fontStyle=1;" vertex="1" parent="ouFma8THzdqMKJ_TYZ1r-359">
          <mxGeometry x="110" y="15" width="160" height="30" as="geometry" />
        </mxCell>
        <mxCell id="ouFma8THzdqMKJ_TYZ1r-362" value="Socket.IO Client&lt;br&gt;Plugin (Rooms)" style="rounded=1;whiteSpace=wrap;html=1;fontSize=11;fillColor=#E1F5FE;strokeColor=#01579B;fontStyle=1;" vertex="1" parent="ouFma8THzdqMKJ_TYZ1r-359">
          <mxGeometry x="120" y="60" width="140" height="60" as="geometry" />
        </mxCell>
        <mxCell id="ouFma8THzdqMKJ_TYZ1r-363" value="Orchestrator&lt;br&gt;Client" style="rounded=1;whiteSpace=wrap;html=1;fontSize=11;fillColor=#FFFFFF;strokeColor=#000000;fontStyle=1;" vertex="1" parent="ouFma8THzdqMKJ_TYZ1r-359">
          <mxGeometry x="120" y="150" width="140" height="60" as="geometry" />
        </mxCell>
        <mxCell id="ouFma8THzdqMKJ_TYZ1r-364" value="MCP Adapter" style="rounded=1;whiteSpace=wrap;html=1;fontSize=11;fillColor=#F3E5F5;strokeColor=#6A1B9A;fontStyle=1;" vertex="1" parent="ouFma8THzdqMKJ_TYZ1r-359">
          <mxGeometry x="120" y="240" width="140" height="60" as="geometry" />
        </mxCell>
        <mxCell id="ouFma8THzdqMKJ_TYZ1r-365" value="" style="group" vertex="1" connectable="0" parent="1">
          <mxGeometry x="4700" y="590" width="380" height="320" as="geometry" />
        </mxCell>
        <mxCell id="ouFma8THzdqMKJ_TYZ1r-366" value="" style="rounded=1;whiteSpace=wrap;html=1;fillColor=#E8F5E9;strokeColor=#4CAF50;strokeWidth=3;dashed=1;" vertex="1" parent="ouFma8THzdqMKJ_TYZ1r-365">
          <mxGeometry width="380" height="320" as="geometry" />
        </mxCell>
        <mxCell id="ouFma8THzdqMKJ_TYZ1r-367" value="StateMachineServer" style="text;html=1;strokeColor=none;fillColor=none;align=center;verticalAlign=middle;whiteSpace=wrap;rounded=0;fontSize=16;fontStyle=1;" vertex="1" parent="ouFma8THzdqMKJ_TYZ1r-365">
          <mxGeometry x="110" y="15" width="160" height="30" as="geometry" />
        </mxCell>
        <mxCell id="ouFma8THzdqMKJ_TYZ1r-368" value="Socket.IO Client&lt;br&gt;Plugin (Rooms)" style="rounded=1;whiteSpace=wrap;html=1;fontSize=11;fillColor=#E1F5FE;strokeColor=#01579B;fontStyle=1;" vertex="1" parent="ouFma8THzdqMKJ_TYZ1r-365">
          <mxGeometry x="120" y="60" width="140" height="60" as="geometry" />
        </mxCell>
        <mxCell id="ouFma8THzdqMKJ_TYZ1r-369" value="Orchestrator&lt;br&gt;Client" style="rounded=1;whiteSpace=wrap;html=1;fontSize=11;fillColor=#FFFFFF;strokeColor=#000000;fontStyle=1;" vertex="1" parent="ouFma8THzdqMKJ_TYZ1r-365">
          <mxGeometry x="120" y="150" width="140" height="60" as="geometry" />
        </mxCell>
        <mxCell id="ouFma8THzdqMKJ_TYZ1r-370" value="MCP Adapter" style="rounded=1;whiteSpace=wrap;html=1;fontSize=11;fillColor=#F3E5F5;strokeColor=#6A1B9A;fontStyle=1;" vertex="1" parent="ouFma8THzdqMKJ_TYZ1r-365">
          <mxGeometry x="120" y="240" width="140" height="60" as="geometry" />
        </mxCell>
        <mxCell id="ouFma8THzdqMKJ_TYZ1r-371" value="" style="group" vertex="1" connectable="0" parent="1">
          <mxGeometry x="3650" y="170" width="380" height="320" as="geometry" />
        </mxCell>
        <mxCell id="ouFma8THzdqMKJ_TYZ1r-372" value="" style="rounded=1;whiteSpace=wrap;html=1;fillColor=#fad9d5;strokeColor=#ae4132;strokeWidth=3;dashed=1;" vertex="1" parent="ouFma8THzdqMKJ_TYZ1r-371">
          <mxGeometry width="380" height="320" as="geometry" />
        </mxCell>
        <mxCell id="ouFma8THzdqMKJ_TYZ1r-373" value="WikiBrowserServer" style="text;html=1;strokeColor=none;fillColor=none;align=center;verticalAlign=middle;whiteSpace=wrap;rounded=0;fontSize=16;fontStyle=1;" vertex="1" parent="ouFma8THzdqMKJ_TYZ1r-371">
          <mxGeometry x="110" y="15" width="160" height="30" as="geometry" />
        </mxCell>
        <mxCell id="ouFma8THzdqMKJ_TYZ1r-374" value="Socket.IO Client&lt;br&gt;Plugin (Rooms)" style="rounded=1;whiteSpace=wrap;html=1;fontSize=11;fillColor=#E1F5FE;strokeColor=#01579B;fontStyle=1;" vertex="1" parent="ouFma8THzdqMKJ_TYZ1r-371">
          <mxGeometry x="120" y="60" width="140" height="60" as="geometry" />
        </mxCell>
        <mxCell id="ouFma8THzdqMKJ_TYZ1r-375" value="Orchestrator&lt;br&gt;Client" style="rounded=1;whiteSpace=wrap;html=1;fontSize=11;fillColor=#FFFFFF;strokeColor=#000000;fontStyle=1;" vertex="1" parent="ouFma8THzdqMKJ_TYZ1r-371">
          <mxGeometry x="120" y="150" width="140" height="60" as="geometry" />
        </mxCell>
        <mxCell id="ouFma8THzdqMKJ_TYZ1r-376" value="MCP Adapter" style="rounded=1;whiteSpace=wrap;html=1;fontSize=11;fillColor=#F3E5F5;strokeColor=#6A1B9A;fontStyle=1;" vertex="1" parent="ouFma8THzdqMKJ_TYZ1r-371">
          <mxGeometry x="120" y="240" width="140" height="60" as="geometry" />
        </mxCell>
        <mxCell id="ouFma8THzdqMKJ_TYZ1r-377" value="" style="group" vertex="1" connectable="0" parent="1">
          <mxGeometry x="2860" y="-1490" width="380" height="320" as="geometry" />
        </mxCell>
        <mxCell id="ouFma8THzdqMKJ_TYZ1r-378" value="" style="rounded=1;whiteSpace=wrap;html=1;fillColor=#647687;strokeColor=#314354;strokeWidth=3;dashed=1;fontColor=#ffffff;" vertex="1" parent="ouFma8THzdqMKJ_TYZ1r-377">
          <mxGeometry width="380" height="320" as="geometry" />
        </mxCell>
        <mxCell id="ouFma8THzdqMKJ_TYZ1r-379" value="ConsoleGamificationUI" style="text;html=1;strokeColor=none;fillColor=none;align=center;verticalAlign=middle;whiteSpace=wrap;rounded=0;fontSize=16;fontStyle=1;fontColor=#ffffff;" vertex="1" parent="ouFma8THzdqMKJ_TYZ1r-377">
          <mxGeometry x="110" y="15" width="160" height="30" as="geometry" />
        </mxCell>
        <mxCell id="ouFma8THzdqMKJ_TYZ1r-380" value="Socket.IO Client&lt;br&gt;Plugin (Rooms)" style="rounded=1;whiteSpace=wrap;html=1;fontSize=11;fillColor=#E1F5FE;strokeColor=#01579B;fontStyle=1;" vertex="1" parent="ouFma8THzdqMKJ_TYZ1r-377">
          <mxGeometry x="120" y="60" width="140" height="60" as="geometry" />
        </mxCell>
        <mxCell id="ouFma8THzdqMKJ_TYZ1r-381" value="Orchestrator&lt;br&gt;Client" style="rounded=1;whiteSpace=wrap;html=1;fontSize=11;fillColor=#FFFFFF;strokeColor=#000000;fontStyle=1;" vertex="1" parent="ouFma8THzdqMKJ_TYZ1r-377">
          <mxGeometry x="120" y="150" width="140" height="60" as="geometry" />
        </mxCell>
        <mxCell id="ouFma8THzdqMKJ_TYZ1r-382" value="MCP Adapter" style="rounded=1;whiteSpace=wrap;html=1;fontSize=11;fillColor=#F3E5F5;strokeColor=#6A1B9A;fontStyle=1;" vertex="1" parent="ouFma8THzdqMKJ_TYZ1r-377">
          <mxGeometry x="120" y="240" width="140" height="60" as="geometry" />
        </mxCell>
        <mxCell id="ouFma8THzdqMKJ_TYZ1r-383" value="" style="group" vertex="1" connectable="0" parent="1">
          <mxGeometry x="2870" y="-430" width="380" height="320" as="geometry" />
        </mxCell>
        <mxCell id="ouFma8THzdqMKJ_TYZ1r-384" value="" style="rounded=1;whiteSpace=wrap;html=1;fillColor=#647687;strokeColor=#314354;strokeWidth=3;dashed=1;fontColor=#ffffff;" vertex="1" parent="ouFma8THzdqMKJ_TYZ1r-383">
          <mxGeometry width="380" height="320" as="geometry" />
        </mxCell>
        <mxCell id="ouFma8THzdqMKJ_TYZ1r-385" value="WebGamificationUI" style="text;html=1;strokeColor=none;fillColor=none;align=center;verticalAlign=middle;whiteSpace=wrap;rounded=0;fontSize=16;fontStyle=1;fontColor=#ffffff;" vertex="1" parent="ouFma8THzdqMKJ_TYZ1r-383">
          <mxGeometry x="110" y="15" width="160" height="30" as="geometry" />
        </mxCell>
        <mxCell id="ouFma8THzdqMKJ_TYZ1r-386" value="Socket.IO Client&lt;br&gt;Plugin (Rooms)" style="rounded=1;whiteSpace=wrap;html=1;fontSize=11;fillColor=#E1F5FE;strokeColor=#01579B;fontStyle=1;" vertex="1" parent="ouFma8THzdqMKJ_TYZ1r-383">
          <mxGeometry x="120" y="60" width="140" height="60" as="geometry" />
        </mxCell>
        <mxCell id="ouFma8THzdqMKJ_TYZ1r-387" value="Orchestrator&lt;br&gt;Client" style="rounded=1;whiteSpace=wrap;html=1;fontSize=11;fillColor=#FFFFFF;strokeColor=#000000;fontStyle=1;" vertex="1" parent="ouFma8THzdqMKJ_TYZ1r-383">
          <mxGeometry x="120" y="150" width="140" height="60" as="geometry" />
        </mxCell>
        <mxCell id="ouFma8THzdqMKJ_TYZ1r-388" value="MCP Adapter" style="rounded=1;whiteSpace=wrap;html=1;fontSize=11;fillColor=#F3E5F5;strokeColor=#6A1B9A;fontStyle=1;" vertex="1" parent="ouFma8THzdqMKJ_TYZ1r-383">
          <mxGeometry x="120" y="240" width="140" height="60" as="geometry" />
        </mxCell>
        <mxCell id="ouFma8THzdqMKJ_TYZ1r-389" value="" style="group" vertex="1" connectable="0" parent="1">
          <mxGeometry x="5630" y="-860" width="380" height="240" as="geometry" />
        </mxCell>
        <mxCell id="ouFma8THzdqMKJ_TYZ1r-390" value="" style="rounded=1;whiteSpace=wrap;html=1;fillColor=#76608a;strokeColor=#432D57;strokeWidth=3;dashed=1;fontColor=#ffffff;" vertex="1" parent="ouFma8THzdqMKJ_TYZ1r-389">
          <mxGeometry width="380" height="240" as="geometry" />
        </mxCell>
        <mxCell id="ouFma8THzdqMKJ_TYZ1r-391" value="CopilotLikeAgent" style="text;html=1;strokeColor=none;fillColor=none;align=center;verticalAlign=middle;whiteSpace=wrap;rounded=0;fontSize=16;fontStyle=1;fontColor=#ffffff;" vertex="1" parent="ouFma8THzdqMKJ_TYZ1r-389">
          <mxGeometry x="110" y="15" width="160" height="30" as="geometry" />
        </mxCell>
        <mxCell id="ouFma8THzdqMKJ_TYZ1r-392" value="MCP Adapter&lt;br&gt;(AlephScript Connection)" style="rounded=1;whiteSpace=wrap;html=1;fontSize=11;fillColor=#F3E5F5;strokeColor=#6A1B9A;fontStyle=1;" vertex="1" parent="ouFma8THzdqMKJ_TYZ1r-389">
          <mxGeometry x="120" y="70" width="140" height="80" as="geometry" />
        </mxCell>
        <mxCell id="ouFma8THzdqMKJ_TYZ1r-393" style="edgeStyle=orthogonalEdgeStyle;rounded=0;orthogonalLoop=1;jettySize=auto;html=1;strokeColor=#4CAF50;strokeWidth=3;endArrow=classic;endFill=1;" edge="1" parent="1" source="ouFma8THzdqMKJ_TYZ1r-477" target="ouFma8THzdqMKJ_TYZ1r-360">
          <mxGeometry relative="1" as="geometry" />
        </mxCell>
        <mxCell id="ouFma8THzdqMKJ_TYZ1r-394" style="edgeStyle=orthogonalEdgeStyle;rounded=0;orthogonalLoop=1;jettySize=auto;html=1;strokeColor=#4CAF50;strokeWidth=3;endArrow=classic;endFill=1;" edge="1" parent="1" source="ouFma8THzdqMKJ_TYZ1r-477" target="ouFma8THzdqMKJ_TYZ1r-366">
          <mxGeometry relative="1" as="geometry" />
        </mxCell>
        <mxCell id="ouFma8THzdqMKJ_TYZ1r-395" style="edgeStyle=orthogonalEdgeStyle;rounded=0;orthogonalLoop=1;jettySize=auto;html=1;strokeColor=#ae4132;strokeWidth=3;endArrow=classic;endFill=1;" edge="1" parent="1" source="ouFma8THzdqMKJ_TYZ1r-477" target="ouFma8THzdqMKJ_TYZ1r-372">
          <mxGeometry relative="1" as="geometry" />
        </mxCell>
        <mxCell id="ouFma8THzdqMKJ_TYZ1r-396" style="edgeStyle=orthogonalEdgeStyle;rounded=0;orthogonalLoop=1;jettySize=auto;html=1;strokeColor=#314354;strokeWidth=3;endArrow=classic;endFill=1;" edge="1" parent="1" source="ouFma8THzdqMKJ_TYZ1r-477" target="ouFma8THzdqMKJ_TYZ1r-378">
          <mxGeometry relative="1" as="geometry" />
        </mxCell>
        <mxCell id="ouFma8THzdqMKJ_TYZ1r-397" style="edgeStyle=orthogonalEdgeStyle;rounded=0;orthogonalLoop=1;jettySize=auto;html=1;strokeColor=#314354;strokeWidth=3;endArrow=classic;endFill=1;" edge="1" parent="1" source="ouFma8THzdqMKJ_TYZ1r-477" target="ouFma8THzdqMKJ_TYZ1r-384">
          <mxGeometry relative="1" as="geometry" />
        </mxCell>
        <mxCell id="ouFma8THzdqMKJ_TYZ1r-398" style="edgeStyle=orthogonalEdgeStyle;rounded=0;orthogonalLoop=1;jettySize=auto;html=1;strokeColor=#01579B;strokeWidth=2;startArrow=classic;startFill=1;endArrow=classic;endFill=1;dashed=1;" edge="1" parent="1" source="ouFma8THzdqMKJ_TYZ1r-476" target="ouFma8THzdqMKJ_TYZ1r-352">
          <mxGeometry relative="1" as="geometry">
            <Array as="points">
              <mxPoint x="4920" y="10" />
              <mxPoint x="4920" y="-145" />
            </Array>
          </mxGeometry>
        </mxCell>
        <mxCell id="ouFma8THzdqMKJ_TYZ1r-399" style="edgeStyle=orthogonalEdgeStyle;rounded=0;orthogonalLoop=1;jettySize=auto;html=1;strokeColor=#01579B;strokeWidth=2;startArrow=classic;startFill=1;endArrow=classic;endFill=1;dashed=1;" edge="1" parent="1" source="ouFma8THzdqMKJ_TYZ1r-476" target="ouFma8THzdqMKJ_TYZ1r-353">
          <mxGeometry relative="1" as="geometry">
            <Array as="points">
              <mxPoint x="5110" y="10" />
              <mxPoint x="5110" y="-145" />
            </Array>
          </mxGeometry>
        </mxCell>
        <mxCell id="ouFma8THzdqMKJ_TYZ1r-400" style="edgeStyle=orthogonalEdgeStyle;rounded=0;orthogonalLoop=1;jettySize=auto;html=1;strokeColor=#01579B;strokeWidth=2;startArrow=classic;startFill=1;endArrow=classic;endFill=1;dashed=1;" edge="1" parent="1" source="ouFma8THzdqMKJ_TYZ1r-476" target="ouFma8THzdqMKJ_TYZ1r-354">
          <mxGeometry relative="1" as="geometry">
            <Array as="points">
              <mxPoint x="5300" y="10" />
              <mxPoint x="5300" y="-145" />
            </Array>
          </mxGeometry>
        </mxCell>
        <mxCell id="ouFma8THzdqMKJ_TYZ1r-401" style="edgeStyle=orthogonalEdgeStyle;rounded=0;orthogonalLoop=1;jettySize=auto;html=1;strokeColor=#01579B;strokeWidth=2;startArrow=classic;startFill=1;endArrow=classic;endFill=1;dashed=1;" edge="1" parent="1" source="ouFma8THzdqMKJ_TYZ1r-380" target="ouFma8THzdqMKJ_TYZ1r-355">
          <mxGeometry relative="1" as="geometry">
            <Array as="points">
              <mxPoint x="4720" y="-750" />
              <mxPoint x="4720" y="-645" />
            </Array>
          </mxGeometry>
        </mxCell>
        <mxCell id="ouFma8THzdqMKJ_TYZ1r-402" style="edgeStyle=orthogonalEdgeStyle;rounded=0;orthogonalLoop=1;jettySize=auto;html=1;strokeColor=#01579B;strokeWidth=2;startArrow=classic;startFill=1;endArrow=classic;endFill=1;dashed=1;" edge="1" parent="1" source="ouFma8THzdqMKJ_TYZ1r-386" target="ouFma8THzdqMKJ_TYZ1r-356">
          <mxGeometry relative="1" as="geometry">
            <Array as="points">
              <mxPoint x="5110" y="650" />
              <mxPoint x="5110" y="-35" />
            </Array>
          </mxGeometry>
        </mxCell>
        <mxCell id="ouFma8THzdqMKJ_TYZ1r-403" style="edgeStyle=orthogonalEdgeStyle;rounded=0;orthogonalLoop=1;jettySize=auto;html=1;strokeColor=#432D57;strokeWidth=2;startArrow=classic;startFill=1;endArrow=classic;endFill=1;dashed=1;" edge="1" parent="1" source="ouFma8THzdqMKJ_TYZ1r-392" target="ouFma8THzdqMKJ_TYZ1r-357">
          <mxGeometry relative="1" as="geometry">
            <Array as="points">
              <mxPoint x="6130" y="-170" />
              <mxPoint x="5300" y="-170" />
            </Array>
          </mxGeometry>
        </mxCell>
        <mxCell id="ouFma8THzdqMKJ_TYZ1r-404" style="edgeStyle=orthogonalEdgeStyle;rounded=0;orthogonalLoop=1;jettySize=auto;html=1;strokeColor=#01579B;strokeWidth=2;startArrow=classic;startFill=1;endArrow=classic;endFill=1;dashed=1;" edge="1" parent="1" source="ouFma8THzdqMKJ_TYZ1r-368" target="ouFma8THzdqMKJ_TYZ1r-353">
          <mxGeometry relative="1" as="geometry">
            <Array as="points">
              <mxPoint x="5110" y="290" />
              <mxPoint x="5110" y="-145" />
            </Array>
          </mxGeometry>
        </mxCell>
        <mxCell id="ouFma8THzdqMKJ_TYZ1r-405" style="edgeStyle=orthogonalEdgeStyle;rounded=0;orthogonalLoop=1;jettySize=auto;html=1;strokeColor=#01579B;strokeWidth=2;startArrow=classic;startFill=1;endArrow=classic;endFill=1;dashed=1;" edge="1" parent="1" source="ouFma8THzdqMKJ_TYZ1r-374" target="ouFma8THzdqMKJ_TYZ1r-354">
          <mxGeometry relative="1" as="geometry">
            <Array as="points">
              <mxPoint x="5300" y="290" />
              <mxPoint x="5300" y="-145" />
            </Array>
          </mxGeometry>
        </mxCell>
        <mxCell id="ouFma8THzdqMKJ_TYZ1r-406" style="edgeStyle=orthogonalEdgeStyle;rounded=0;orthogonalLoop=1;jettySize=auto;html=1;strokeColor=#FF6D00;strokeWidth=1;dashed=1;endArrow=classic;endFill=1;" edge="1" parent="1" target="ouFma8THzdqMKJ_TYZ1r-363">
          <mxGeometry relative="1" as="geometry">
            <mxPoint x="4320" y="200" as="sourcePoint" />
          </mxGeometry>
        </mxCell>
        <mxCell id="ouFma8THzdqMKJ_TYZ1r-407" value="SysOutMessage" style="edgeLabel;html=1;align=center;verticalAlign=middle;resizable=0;points=[];fontSize=8;" vertex="1" connectable="0" parent="ouFma8THzdqMKJ_TYZ1r-406">
          <mxGeometry relative="1" as="geometry">
            <mxPoint as="offset" />
          </mxGeometry>
        </mxCell>
        <mxCell id="ouFma8THzdqMKJ_TYZ1r-408" value="" style="group" vertex="1" connectable="0" parent="1">
          <mxGeometry x="2290" y="1450" width="1360" height="1360" as="geometry" />
        </mxCell>
        <mxCell id="ouFma8THzdqMKJ_TYZ1r-409" value="" style="whiteSpace=wrap;html=1;aspect=fixed;" vertex="1" parent="ouFma8THzdqMKJ_TYZ1r-408">
          <mxGeometry width="1360" height="1360" as="geometry" />
        </mxCell>
        <mxCell id="ouFma8THzdqMKJ_TYZ1r-410" value="" style="group" vertex="1" connectable="0" parent="ouFma8THzdqMKJ_TYZ1r-408">
          <mxGeometry x="420" y="370" width="240" height="240" as="geometry" />
        </mxCell>
        <mxCell id="ouFma8THzdqMKJ_TYZ1r-411" value="Orchestrator&lt;br&gt;(RxJS + NodeJS)" style="rounded=1;whiteSpace=wrap;html=1;fontSize=14;fontColor=#000000;strokeColor=#000000;fillColor=#FFFFFF;fontStyle=1;" vertex="1" parent="ouFma8THzdqMKJ_TYZ1r-410">
          <mxGeometry x="50" y="70" width="140" height="80" as="geometry" />
        </mxCell>
        <mxCell id="ouFma8THzdqMKJ_TYZ1r-412" value="App&lt;br&gt;(AppMessage)" style="rounded=1;whiteSpace=wrap;html=1;fontSize=11;strokeColor=#2D7600;fillColor=#60a917;fontColor=#ffffff;fontStyle=1;" vertex="1" parent="ouFma8THzdqMKJ_TYZ1r-410">
          <mxGeometry x="-20" y="140" width="100" height="40" as="geometry" />
        </mxCell>
        <mxCell id="ouFma8THzdqMKJ_TYZ1r-413" value="Sys&lt;br&gt;(SysMessage)" style="rounded=1;whiteSpace=wrap;html=1;fontSize=11;fontColor=default;strokeColor=#FF6D00;fillColor=#FFE0B2;fontStyle=1;" vertex="1" parent="ouFma8THzdqMKJ_TYZ1r-410">
          <mxGeometry x="70" y="20" width="100" height="40" as="geometry" />
        </mxCell>
        <mxCell id="ouFma8THzdqMKJ_TYZ1r-414" value="UI&lt;br&gt;(UIMessage)" style="rounded=1;whiteSpace=wrap;html=1;fontSize=11;fontColor=#ffffff;strokeColor=#006EAF;fillColor=#1ba1e2;fontStyle=1;" vertex="1" parent="ouFma8THzdqMKJ_TYZ1r-410">
          <mxGeometry x="160" y="140" width="100" height="40" as="geometry" />
        </mxCell>
        <mxCell id="ouFma8THzdqMKJ_TYZ1r-415" style="edgeStyle=orthogonalEdgeStyle;rounded=0;orthogonalLoop=1;jettySize=auto;html=1;strokeColor=#2D7600;strokeWidth=1;dashed=1;" edge="1" parent="ouFma8THzdqMKJ_TYZ1r-410" source="ouFma8THzdqMKJ_TYZ1r-411" target="ouFma8THzdqMKJ_TYZ1r-412">
          <mxGeometry relative="1" as="geometry" />
        </mxCell>
        <mxCell id="ouFma8THzdqMKJ_TYZ1r-416" style="edgeStyle=orthogonalEdgeStyle;rounded=0;orthogonalLoop=1;jettySize=auto;html=1;strokeColor=#FF6D00;strokeWidth=1;dashed=1;" edge="1" parent="ouFma8THzdqMKJ_TYZ1r-410" source="ouFma8THzdqMKJ_TYZ1r-411" target="ouFma8THzdqMKJ_TYZ1r-413">
          <mxGeometry relative="1" as="geometry" />
        </mxCell>
        <mxCell id="ouFma8THzdqMKJ_TYZ1r-417" style="edgeStyle=orthogonalEdgeStyle;rounded=0;orthogonalLoop=1;jettySize=auto;html=1;strokeColor=#006EAF;strokeWidth=1;dashed=1;" edge="1" parent="ouFma8THzdqMKJ_TYZ1r-410" source="ouFma8THzdqMKJ_TYZ1r-411" target="ouFma8THzdqMKJ_TYZ1r-414">
          <mxGeometry relative="1" as="geometry" />
        </mxCell>
        <mxCell id="ouFma8THzdqMKJ_TYZ1r-418" value="AppChannelMessage" style="shape=mxgraph.signs.tech.mail;html=1;pointerEvents=1;fillColor=#60a917;strokeColor=#2D7600;verticalLabelPosition=bottom;verticalAlign=top;align=center;sketch=0;fontSize=9;fontColor=#ffffff;" vertex="1" parent="ouFma8THzdqMKJ_TYZ1r-408">
          <mxGeometry x="660" y="470" width="80" height="40" as="geometry" />
        </mxCell>
        <mxCell id="ouFma8THzdqMKJ_TYZ1r-419" style="edgeStyle=orthogonalEdgeStyle;rounded=0;orthogonalLoop=1;jettySize=auto;html=1;strokeColor=#2D7600;strokeWidth=2;endArrow=classic;endFill=1;" edge="1" parent="ouFma8THzdqMKJ_TYZ1r-408" source="ouFma8THzdqMKJ_TYZ1r-418" target="ouFma8THzdqMKJ_TYZ1r-412">
          <mxGeometry relative="1" as="geometry">
            <Array as="points">
              <mxPoint x="700" y="610" />
              <mxPoint x="500" y="610" />
            </Array>
          </mxGeometry>
        </mxCell>
        <mxCell id="ouFma8THzdqMKJ_TYZ1r-420" value="AppOutMessage" style="edgeLabel;html=1;align=center;verticalAlign=middle;resizable=0;points=[];fontSize=8;" vertex="1" connectable="0" parent="ouFma8THzdqMKJ_TYZ1r-419">
          <mxGeometry relative="1" as="geometry">
            <mxPoint as="offset" />
          </mxGeometry>
        </mxCell>
        <mxCell id="ouFma8THzdqMKJ_TYZ1r-421" value="UIChannelMessage" style="shape=mxgraph.signs.tech.mail;html=1;pointerEvents=1;fillColor=#1ba1e2;strokeColor=#006EAF;verticalLabelPosition=bottom;verticalAlign=top;align=center;sketch=0;fontSize=9;fontColor=#ffffff;" vertex="1" parent="ouFma8THzdqMKJ_TYZ1r-408">
          <mxGeometry x="500" y="470" width="80" height="40" as="geometry" />
        </mxCell>
        <mxCell id="ouFma8THzdqMKJ_TYZ1r-422" value="&lt;b&gt;Canales de Comunicación&lt;/b&gt;&lt;br&gt;&lt;br&gt;🔶 &lt;b&gt;RxJS&lt;/b&gt;: Launcher ↔ Runtimes&lt;br&gt;🔷 &lt;b&gt;Socket.IO Rooms&lt;/b&gt;: AlephScript (Servers, UIs, Copilot)" style="text;html=1;strokeColor=#000000;fillColor=#f8f9fa;align=left;verticalAlign=top;whiteSpace=wrap;rounded=1;fontSize=11;spacingLeft=10;spacingTop=10;fontStyle=1;" vertex="1" parent="ouFma8THzdqMKJ_TYZ1r-408">
          <mxGeometry x="210" y="630" width="270" height="120" as="geometry" />
        </mxCell>
        <mxCell id="ouFma8THzdqMKJ_TYZ1r-423" value="&lt;b&gt;Canal SYS&lt;/b&gt;&lt;br&gt;• Gestión de sistema&lt;br&gt;• Control procesos&lt;br&gt;• Errores y health" style="text;html=1;strokeColor=#FF6D00;fillColor=#FFE0B2;align=left;verticalAlign=top;whiteSpace=wrap;rounded=1;fontSize=10;spacingLeft=5;spacingTop=5;" vertex="1" parent="ouFma8THzdqMKJ_TYZ1r-408">
          <mxGeometry x="500" y="630" width="160" height="90" as="geometry" />
        </mxCell>
        <mxCell id="ouFma8THzdqMKJ_TYZ1r-424" value="&lt;b&gt;Canal APP&lt;/b&gt;&lt;br&gt;• Lógica negocio&lt;br&gt;• Datos&lt;br&gt;• Estado app" style="text;html=1;strokeColor=#2D7600;fillColor=#60a917;align=left;verticalAlign=top;whiteSpace=wrap;rounded=1;fontSize=10;spacingLeft=5;spacingTop=5;fontColor=#ffffff;" vertex="1" parent="ouFma8THzdqMKJ_TYZ1r-408">
          <mxGeometry x="680" y="630" width="160" height="90" as="geometry" />
        </mxCell>
        <mxCell id="ouFma8THzdqMKJ_TYZ1r-425" value="&lt;b&gt;Canal UI&lt;/b&gt;&lt;br&gt;• Interacción&lt;br&gt;• Estado UI&lt;br&gt;• Feedback" style="text;html=1;strokeColor=#006EAF;fillColor=#1ba1e2;align=left;verticalAlign=top;whiteSpace=wrap;rounded=1;fontSize=10;spacingLeft=5;spacingTop=5;fontColor=#ffffff;" vertex="1" parent="ouFma8THzdqMKJ_TYZ1r-408">
          <mxGeometry x="860" y="630" width="160" height="90" as="geometry" />
        </mxCell>
        <mxCell id="ouFma8THzdqMKJ_TYZ1r-426" value="" style="group" vertex="1" connectable="0" parent="ouFma8THzdqMKJ_TYZ1r-408">
          <mxGeometry x="295" y="920" width="570" height="166" as="geometry" />
        </mxCell>
        <mxCell id="ouFma8THzdqMKJ_TYZ1r-427" value="Flujo de arranque (spawn)" style="text;html=1;strokeColor=none;fillColor=none;align=left;verticalAlign=top;whiteSpace=wrap;rounded=0;fontSize=12;fontStyle=1;fontColor=#FFFFFF;" vertex="1" parent="ouFma8THzdqMKJ_TYZ1r-426">
          <mxGeometry x="340" width="220" height="20" as="geometry" />
        </mxCell>
        <mxCell id="ouFma8THzdqMKJ_TYZ1r-428" value="MCPDriverAdapter" style="rounded=1;whiteSpace=wrap;html=1;fontSize=10;fillColor=#F3E5F5;strokeColor=#6A1B9A;" vertex="1" parent="ouFma8THzdqMKJ_TYZ1r-426">
          <mxGeometry x="350" y="50" width="110" height="40" as="geometry" />
        </mxCell>
        <mxCell id="ouFma8THzdqMKJ_TYZ1r-429" style="edgeStyle=orthogonalEdgeStyle;rounded=0;orthogonalLoop=1;jettySize=auto;html=1;strokeColor=#4CAF50;strokeWidth=2;endArrow=classic;endFill=1;" edge="1" parent="ouFma8THzdqMKJ_TYZ1r-426" source="ouFma8THzdqMKJ_TYZ1r-428">
          <mxGeometry relative="1" as="geometry">
            <mxPoint x="540" y="44" as="targetPoint" />
          </mxGeometry>
        </mxCell>
        <mxCell id="ouFma8THzdqMKJ_TYZ1r-430" value="Flujo de Arranque" style="text;html=1;strokeColor=none;fillColor=none;align=center;verticalAlign=middle;whiteSpace=wrap;rounded=0;fontSize=14;fontStyle=1;" vertex="1" parent="ouFma8THzdqMKJ_TYZ1r-426">
          <mxGeometry x="220" y="38" width="160" height="20" as="geometry" />
        </mxCell>
        <mxCell id="ouFma8THzdqMKJ_TYZ1r-431" value="MCPDriverAdapter" style="rounded=1;whiteSpace=wrap;html=1;fontSize=10;fillColor=#F3E5F5;strokeColor=#6A1B9A;fontStyle=1;" vertex="1" parent="ouFma8THzdqMKJ_TYZ1r-426">
          <mxGeometry y="75" width="120" height="50" as="geometry" />
        </mxCell>
        <mxCell id="ouFma8THzdqMKJ_TYZ1r-432" value="DevOps" style="rounded=1;whiteSpace=wrap;html=1;fontSize=10;fillColor=#E8F5E9;strokeColor=#4CAF50;" vertex="1" parent="ouFma8THzdqMKJ_TYZ1r-426">
          <mxGeometry x="130" y="70" width="80" height="36" as="geometry" />
        </mxCell>
        <mxCell id="ouFma8THzdqMKJ_TYZ1r-433" value="StateMachine" style="rounded=1;whiteSpace=wrap;html=1;fontSize=10;fillColor=#E8F5E9;strokeColor=#4CAF50;" vertex="1" parent="ouFma8THzdqMKJ_TYZ1r-426">
          <mxGeometry x="220" y="70" width="80" height="36" as="geometry" />
        </mxCell>
        <mxCell id="ouFma8THzdqMKJ_TYZ1r-434" value="WikiBrowser" style="rounded=1;whiteSpace=wrap;html=1;fontSize=10;fillColor=#fad9d5;strokeColor=#ae4132;" vertex="1" parent="ouFma8THzdqMKJ_TYZ1r-426">
          <mxGeometry x="310" y="70" width="80" height="36" as="geometry" />
        </mxCell>
        <mxCell id="ouFma8THzdqMKJ_TYZ1r-435" value="Console UI" style="rounded=1;whiteSpace=wrap;html=1;fontSize=10;fillColor=#647687;strokeColor=#314354;fontColor=#ffffff;" vertex="1" parent="ouFma8THzdqMKJ_TYZ1r-426">
          <mxGeometry x="400" y="70" width="80" height="36" as="geometry" />
        </mxCell>
        <mxCell id="ouFma8THzdqMKJ_TYZ1r-436" value="Web UI" style="rounded=1;whiteSpace=wrap;html=1;fontSize=10;fillColor=#647687;strokeColor=#314354;fontColor=#ffffff;" vertex="1" parent="ouFma8THzdqMKJ_TYZ1r-426">
          <mxGeometry x="490" y="70" width="80" height="36" as="geometry" />
        </mxCell>
        <mxCell id="ouFma8THzdqMKJ_TYZ1r-437" style="edgeStyle=orthogonalEdgeStyle;rounded=0;orthogonalLoop=1;jettySize=auto;html=1;strokeColor=#4CAF50;strokeWidth=3;endArrow=classic;endFill=1;" edge="1" parent="ouFma8THzdqMKJ_TYZ1r-426" source="ouFma8THzdqMKJ_TYZ1r-431" target="ouFma8THzdqMKJ_TYZ1r-432">
          <mxGeometry relative="1" as="geometry" />
        </mxCell>
        <mxCell id="ouFma8THzdqMKJ_TYZ1r-438" style="edgeStyle=orthogonalEdgeStyle;rounded=0;orthogonalLoop=1;jettySize=auto;html=1;strokeColor=#4CAF50;strokeWidth=3;endArrow=classic;endFill=1;" edge="1" parent="ouFma8THzdqMKJ_TYZ1r-426" source="ouFma8THzdqMKJ_TYZ1r-431" target="ouFma8THzdqMKJ_TYZ1r-433">
          <mxGeometry relative="1" as="geometry" />
        </mxCell>
        <mxCell id="ouFma8THzdqMKJ_TYZ1r-439" style="edgeStyle=orthogonalEdgeStyle;rounded=0;orthogonalLoop=1;jettySize=auto;html=1;strokeColor=#ae4132;strokeWidth=3;endArrow=classic;endFill=1;" edge="1" parent="ouFma8THzdqMKJ_TYZ1r-426" source="ouFma8THzdqMKJ_TYZ1r-431" target="ouFma8THzdqMKJ_TYZ1r-434">
          <mxGeometry relative="1" as="geometry" />
        </mxCell>
        <mxCell id="ouFma8THzdqMKJ_TYZ1r-440" style="edgeStyle=orthogonalEdgeStyle;rounded=0;orthogonalLoop=1;jettySize=auto;html=1;strokeColor=#314354;strokeWidth=3;endArrow=classic;endFill=1;" edge="1" parent="ouFma8THzdqMKJ_TYZ1r-426" source="ouFma8THzdqMKJ_TYZ1r-431" target="ouFma8THzdqMKJ_TYZ1r-435">
          <mxGeometry relative="1" as="geometry" />
        </mxCell>
        <mxCell id="ouFma8THzdqMKJ_TYZ1r-441" style="edgeStyle=orthogonalEdgeStyle;rounded=0;orthogonalLoop=1;jettySize=auto;html=1;strokeColor=#314354;strokeWidth=3;endArrow=classic;endFill=1;" edge="1" parent="ouFma8THzdqMKJ_TYZ1r-426" source="ouFma8THzdqMKJ_TYZ1r-431" target="ouFma8THzdqMKJ_TYZ1r-436">
          <mxGeometry relative="1" as="geometry" />
        </mxCell>
        <mxCell id="ouFma8THzdqMKJ_TYZ1r-442" value="Launcher" style="rounded=1;whiteSpace=wrap;html=1;fontSize=10;fillColor=#FFFAE3;strokeColor=#000000;fontStyle=1;" vertex="1" parent="ouFma8THzdqMKJ_TYZ1r-426">
          <mxGeometry y="130" width="120" height="36" as="geometry" />
        </mxCell>
        <mxCell id="ouFma8THzdqMKJ_TYZ1r-443" value="Runtime1" style="rounded=1;whiteSpace=wrap;html=1;fontSize=10;fillColor=#E5F5E0;strokeColor=#000000;" vertex="1" parent="ouFma8THzdqMKJ_TYZ1r-426">
          <mxGeometry x="220" y="130" width="80" height="30" as="geometry" />
        </mxCell>
        <mxCell id="ouFma8THzdqMKJ_TYZ1r-444" value="Runtime2" style="rounded=1;whiteSpace=wrap;html=1;fontSize=10;fillColor=#fad9d5;strokeColor=#ae4132;" vertex="1" parent="ouFma8THzdqMKJ_TYZ1r-426">
          <mxGeometry x="310" y="130" width="80" height="30" as="geometry" />
        </mxCell>
        <mxCell id="ouFma8THzdqMKJ_TYZ1r-445" value="Runtime3" style="rounded=1;whiteSpace=wrap;html=1;fontSize=10;fillColor=#E5F5E0;strokeColor=#000000;" vertex="1" parent="ouFma8THzdqMKJ_TYZ1r-426">
          <mxGeometry x="400" y="130" width="80" height="30" as="geometry" />
        </mxCell>
        <mxCell id="ouFma8THzdqMKJ_TYZ1r-446" style="edgeStyle=orthogonalEdgeStyle;rounded=0;orthogonalLoop=1;jettySize=auto;html=1;strokeColor=#FF6D00;strokeWidth=2;endArrow=classic;endFill=1;startArrow=classic;startFill=1;" edge="1" parent="ouFma8THzdqMKJ_TYZ1r-426" source="ouFma8THzdqMKJ_TYZ1r-442" target="ouFma8THzdqMKJ_TYZ1r-443">
          <mxGeometry relative="1" as="geometry" />
        </mxCell>
        <mxCell id="ouFma8THzdqMKJ_TYZ1r-447" style="edgeStyle=orthogonalEdgeStyle;rounded=0;orthogonalLoop=1;jettySize=auto;html=1;strokeColor=#FF6D00;strokeWidth=2;endArrow=classic;endFill=1;startArrow=classic;startFill=1;" edge="1" parent="ouFma8THzdqMKJ_TYZ1r-426" source="ouFma8THzdqMKJ_TYZ1r-442" target="ouFma8THzdqMKJ_TYZ1r-444">
          <mxGeometry relative="1" as="geometry" />
        </mxCell>
        <mxCell id="ouFma8THzdqMKJ_TYZ1r-448" style="edgeStyle=orthogonalEdgeStyle;rounded=0;orthogonalLoop=1;jettySize=auto;html=1;strokeColor=#FF6D00;strokeWidth=2;endArrow=classic;endFill=1;startArrow=classic;startFill=1;" edge="1" parent="ouFma8THzdqMKJ_TYZ1r-426" source="ouFma8THzdqMKJ_TYZ1r-442" target="ouFma8THzdqMKJ_TYZ1r-445">
          <mxGeometry relative="1" as="geometry" />
        </mxCell>
        <mxCell id="ouFma8THzdqMKJ_TYZ1r-449" value="" style="group" vertex="1" connectable="0" parent="1">
          <mxGeometry x="3755" y="1450" width="1360" height="1360" as="geometry" />
        </mxCell>
        <mxCell id="ouFma8THzdqMKJ_TYZ1r-450" value="" style="whiteSpace=wrap;html=1;aspect=fixed;" vertex="1" parent="ouFma8THzdqMKJ_TYZ1r-449">
          <mxGeometry width="1360" height="1360" as="geometry" />
        </mxCell>
        <mxCell id="ouFma8THzdqMKJ_TYZ1r-451" value="Launcher&lt;br&gt;(start Runtimes)" style="rounded=1;whiteSpace=wrap;html=1;fontSize=14;fontColor=#000000;strokeColor=#000000;fillColor=#FFFAE3;fontStyle=1;" vertex="1" parent="ouFma8THzdqMKJ_TYZ1r-449">
          <mxGeometry x="610" y="310" width="220" height="90" as="geometry" />
        </mxCell>
        <mxCell id="ouFma8THzdqMKJ_TYZ1r-452" value="" style="group" vertex="1" connectable="0" parent="ouFma8THzdqMKJ_TYZ1r-449">
          <mxGeometry x="460" y="660" width="520" height="260" as="geometry" />
        </mxCell>
        <mxCell id="ouFma8THzdqMKJ_TYZ1r-453" value="" style="rounded=1;whiteSpace=wrap;html=1;fillColor=#f8f9fa;strokeColor=#FF6D00;strokeWidth=2;dashed=1;" vertex="1" parent="ouFma8THzdqMKJ_TYZ1r-452">
          <mxGeometry width="520" height="260" as="geometry" />
        </mxCell>
        <mxCell id="ouFma8THzdqMKJ_TYZ1r-454" value="RxJS Runtimes" style="text;html=1;strokeColor=none;fillColor=none;align=center;verticalAlign=middle;whiteSpace=wrap;rounded=0;fontSize=16;fontStyle=1;" vertex="1" parent="ouFma8THzdqMKJ_TYZ1r-452">
          <mxGeometry x="180" y="10" width="160" height="30" as="geometry" />
        </mxCell>
        <mxCell id="ouFma8THzdqMKJ_TYZ1r-455" value="Runtime1&lt;br&gt;(RxJS Client)" style="rounded=1;whiteSpace=wrap;html=1;fontSize=12;fontColor=#000000;strokeColor=#000000;fillColor=#E5F5E0;fontStyle=1;" vertex="1" parent="ouFma8THzdqMKJ_TYZ1r-452">
          <mxGeometry x="30" y="60" width="140" height="70" as="geometry" />
        </mxCell>
        <mxCell id="ouFma8THzdqMKJ_TYZ1r-456" value="Runtime2&lt;br&gt;(RxJS Client)" style="rounded=1;whiteSpace=wrap;html=1;fontSize=12;strokeColor=#ae4132;fillColor=#fad9d5;fontStyle=1;" vertex="1" parent="ouFma8THzdqMKJ_TYZ1r-452">
          <mxGeometry x="190" y="60" width="140" height="70" as="geometry" />
        </mxCell>
        <mxCell id="ouFma8THzdqMKJ_TYZ1r-457" value="Runtime3&lt;br&gt;(RxJS Client)" style="rounded=1;whiteSpace=wrap;html=1;fontSize=12;fontColor=#000000;strokeColor=#000000;fillColor=#E5F5E0;fontStyle=1;" vertex="1" parent="ouFma8THzdqMKJ_TYZ1r-452">
          <mxGeometry x="350" y="60" width="140" height="70" as="geometry" />
        </mxCell>
        <mxCell id="ouFma8THzdqMKJ_TYZ1r-458" value="Runtime4&lt;br&gt;(RxJS Client)" style="rounded=1;whiteSpace=wrap;html=1;fontSize=12;fontColor=#ffffff;strokeColor=#314354;fillColor=#647687;fontStyle=1;" vertex="1" parent="ouFma8THzdqMKJ_TYZ1r-452">
          <mxGeometry x="30" y="150" width="140" height="70" as="geometry" />
        </mxCell>
        <mxCell id="ouFma8THzdqMKJ_TYZ1r-459" value="Runtime5&lt;br&gt;(RxJS Client)" style="rounded=1;whiteSpace=wrap;html=1;fontSize=12;fontColor=#ffffff;strokeColor=#432D57;fillColor=#76608a;fontStyle=1;" vertex="1" parent="ouFma8THzdqMKJ_TYZ1r-452">
          <mxGeometry x="190" y="150" width="140" height="70" as="geometry" />
        </mxCell>
        <mxCell id="ouFma8THzdqMKJ_TYZ1r-460" value="Runtime6&lt;br&gt;(RxJS Client)" style="rounded=1;whiteSpace=wrap;html=1;fontSize=12;fontColor=#000000;strokeColor=#000000;fillColor=#E5F5E0;fontStyle=1;" vertex="1" parent="ouFma8THzdqMKJ_TYZ1r-452">
          <mxGeometry x="350" y="150" width="140" height="70" as="geometry" />
        </mxCell>
        <mxCell id="ouFma8THzdqMKJ_TYZ1r-461" style="edgeStyle=orthogonalEdgeStyle;rounded=0;orthogonalLoop=1;jettySize=auto;html=1;strokeColor=#FF6D00;strokeWidth=3;endArrow=classic;endFill=1;startArrow=classic;startFill=1;" edge="1" parent="ouFma8THzdqMKJ_TYZ1r-449" source="ouFma8THzdqMKJ_TYZ1r-451" target="ouFma8THzdqMKJ_TYZ1r-455">
          <mxGeometry relative="1" as="geometry" />
        </mxCell>
        <mxCell id="ouFma8THzdqMKJ_TYZ1r-462" style="edgeStyle=orthogonalEdgeStyle;rounded=0;orthogonalLoop=1;jettySize=auto;html=1;strokeColor=#FF6D00;strokeWidth=3;endArrow=classic;endFill=1;startArrow=classic;startFill=1;" edge="1" parent="ouFma8THzdqMKJ_TYZ1r-449" source="ouFma8THzdqMKJ_TYZ1r-451" target="ouFma8THzdqMKJ_TYZ1r-456">
          <mxGeometry relative="1" as="geometry" />
        </mxCell>
        <mxCell id="ouFma8THzdqMKJ_TYZ1r-463" style="edgeStyle=orthogonalEdgeStyle;rounded=0;orthogonalLoop=1;jettySize=auto;html=1;strokeColor=#FF6D00;strokeWidth=3;endArrow=classic;endFill=1;startArrow=classic;startFill=1;" edge="1" parent="ouFma8THzdqMKJ_TYZ1r-449" source="ouFma8THzdqMKJ_TYZ1r-451" target="ouFma8THzdqMKJ_TYZ1r-457">
          <mxGeometry relative="1" as="geometry" />
        </mxCell>
        <mxCell id="ouFma8THzdqMKJ_TYZ1r-464" style="edgeStyle=orthogonalEdgeStyle;rounded=0;orthogonalLoop=1;jettySize=auto;html=1;strokeColor=#FF6D00;strokeWidth=3;endArrow=classic;endFill=1;startArrow=classic;startFill=1;" edge="1" parent="ouFma8THzdqMKJ_TYZ1r-449" source="ouFma8THzdqMKJ_TYZ1r-451" target="ouFma8THzdqMKJ_TYZ1r-458">
          <mxGeometry relative="1" as="geometry" />
        </mxCell>
        <mxCell id="ouFma8THzdqMKJ_TYZ1r-465" style="edgeStyle=orthogonalEdgeStyle;rounded=0;orthogonalLoop=1;jettySize=auto;html=1;strokeColor=#FF6D00;strokeWidth=3;endArrow=classic;endFill=1;startArrow=classic;startFill=1;" edge="1" parent="ouFma8THzdqMKJ_TYZ1r-449" source="ouFma8THzdqMKJ_TYZ1r-451" target="ouFma8THzdqMKJ_TYZ1r-459">
          <mxGeometry relative="1" as="geometry" />
        </mxCell>
        <mxCell id="ouFma8THzdqMKJ_TYZ1r-466" style="edgeStyle=orthogonalEdgeStyle;rounded=0;orthogonalLoop=1;jettySize=auto;html=1;strokeColor=#FF6D00;strokeWidth=3;endArrow=classic;endFill=1;startArrow=classic;startFill=1;" edge="1" parent="ouFma8THzdqMKJ_TYZ1r-449" source="ouFma8THzdqMKJ_TYZ1r-451" target="ouFma8THzdqMKJ_TYZ1r-460">
          <mxGeometry relative="1" as="geometry" />
        </mxCell>
        <mxCell id="ouFma8THzdqMKJ_TYZ1r-467" value="" style="whiteSpace=wrap;html=1;aspect=fixed;" vertex="1" parent="1">
          <mxGeometry x="5220" y="1450" width="1360" height="1360" as="geometry" />
        </mxCell>
        <mxCell id="ouFma8THzdqMKJ_TYZ1r-468" value="" style="group" vertex="1" connectable="0" parent="1">
          <mxGeometry x="4350" y="-980" width="360" height="420" as="geometry" />
        </mxCell>
        <mxCell id="ouFma8THzdqMKJ_TYZ1r-469" value="" style="group" vertex="1" connectable="0" parent="ouFma8THzdqMKJ_TYZ1r-468">
          <mxGeometry width="360" height="420" as="geometry" />
        </mxCell>
        <mxCell id="ouFma8THzdqMKJ_TYZ1r-470" value="" style="rounded=1;whiteSpace=wrap;html=1;fillColor=#FFF2CC;strokeColor=#D6B656;strokeWidth=3;dashed=1;" vertex="1" parent="ouFma8THzdqMKJ_TYZ1r-469">
          <mxGeometry width="360" height="420" as="geometry" />
        </mxCell>
        <mxCell id="ouFma8THzdqMKJ_TYZ1r-471" value="MCPLauncherServer" style="text;html=1;strokeColor=none;fillColor=none;align=center;verticalAlign=middle;whiteSpace=wrap;rounded=0;fontSize=16;fontStyle=1;" vertex="1" parent="ouFma8THzdqMKJ_TYZ1r-469">
          <mxGeometry x="90" y="15" width="180" height="30" as="geometry" />
        </mxCell>
        <mxCell id="ouFma8THzdqMKJ_TYZ1r-472" value="Orchestrator&lt;br&gt;(RxJS)" style="rounded=1;whiteSpace=wrap;html=1;fontSize=12;fillColor=#FFFFFF;strokeColor=#000000;fontStyle=1;" vertex="1" parent="ouFma8THzdqMKJ_TYZ1r-469">
          <mxGeometry x="110" y="60" width="140" height="60" as="geometry" />
        </mxCell>
        <mxCell id="ouFma8THzdqMKJ_TYZ1r-473" value="app" style="rounded=1;whiteSpace=wrap;html=1;fontSize=11;fillColor=#60a917;strokeColor=#2D7600;fontColor=#ffffff;fontStyle=1;" vertex="1" parent="ouFma8THzdqMKJ_TYZ1r-469">
          <mxGeometry x="30" y="150" width="70" height="35" as="geometry" />
        </mxCell>
        <mxCell id="ouFma8THzdqMKJ_TYZ1r-474" value="sys" style="rounded=1;whiteSpace=wrap;html=1;fontSize=11;fillColor=#FFE0B2;strokeColor=#FF6D00;fontStyle=1;" vertex="1" parent="ouFma8THzdqMKJ_TYZ1r-469">
          <mxGeometry x="145" y="150" width="70" height="35" as="geometry" />
        </mxCell>
        <mxCell id="ouFma8THzdqMKJ_TYZ1r-475" value="ui" style="rounded=1;whiteSpace=wrap;html=1;fontSize=11;fillColor=#1ba1e2;strokeColor=#006EAF;fontColor=#ffffff;fontStyle=1;" vertex="1" parent="ouFma8THzdqMKJ_TYZ1r-469">
          <mxGeometry x="260" y="150" width="70" height="35" as="geometry" />
        </mxCell>
        <mxCell id="ouFma8THzdqMKJ_TYZ1r-476" value="Socket.IO Client&lt;br&gt;(AlephScript Rooms)" style="rounded=1;whiteSpace=wrap;html=1;fontSize=11;fillColor=#E1F5FE;strokeColor=#01579B;fontStyle=1;" vertex="1" parent="ouFma8THzdqMKJ_TYZ1r-469">
          <mxGeometry x="110" y="220" width="140" height="60" as="geometry" />
        </mxCell>
        <mxCell id="ouFma8THzdqMKJ_TYZ1r-477" value="MCPDriverAdapter" style="rounded=1;whiteSpace=wrap;html=1;fontSize=11;fillColor=#F3E5F5;strokeColor=#6A1B9A;fontStyle=1;" vertex="1" parent="ouFma8THzdqMKJ_TYZ1r-469">
          <mxGeometry x="110" y="310" width="140" height="60" as="geometry" />
        </mxCell>
        <mxCell id="ouFma8THzdqMKJ_TYZ1r-478" style="edgeStyle=orthogonalEdgeStyle;rounded=0;orthogonalLoop=1;jettySize=auto;html=1;strokeColor=#2D7600;strokeWidth=1;dashed=1;" edge="1" parent="ouFma8THzdqMKJ_TYZ1r-469" source="ouFma8THzdqMKJ_TYZ1r-472" target="ouFma8THzdqMKJ_TYZ1r-473">
          <mxGeometry relative="1" as="geometry" />
        </mxCell>
        <mxCell id="ouFma8THzdqMKJ_TYZ1r-479" style="edgeStyle=orthogonalEdgeStyle;rounded=0;orthogonalLoop=1;jettySize=auto;html=1;strokeColor=#FF6D00;strokeWidth=1;dashed=1;" edge="1" parent="ouFma8THzdqMKJ_TYZ1r-469" source="ouFma8THzdqMKJ_TYZ1r-472" target="ouFma8THzdqMKJ_TYZ1r-474">
          <mxGeometry relative="1" as="geometry" />
        </mxCell>
        <mxCell id="ouFma8THzdqMKJ_TYZ1r-480" style="edgeStyle=orthogonalEdgeStyle;rounded=0;orthogonalLoop=1;jettySize=auto;html=1;strokeColor=#006EAF;strokeWidth=1;dashed=1;" edge="1" parent="ouFma8THzdqMKJ_TYZ1r-469" source="ouFma8THzdqMKJ_TYZ1r-472" target="ouFma8THzdqMKJ_TYZ1r-475">
          <mxGeometry relative="1" as="geometry" />
        </mxCell>
        <mxCell id="ouFma8THzdqMKJ_TYZ1r-481" style="edgeStyle=orthogonalEdgeStyle;rounded=0;orthogonalLoop=1;jettySize=auto;html=1;exitX=0;exitY=0.25;exitDx=0;exitDy=0;" edge="1" parent="1" source="ouFma8THzdqMKJ_TYZ1r-390" target="ouFma8THzdqMKJ_TYZ1r-348">
          <mxGeometry relative="1" as="geometry" />
        </mxCell>
        <mxCell id="ouFma8THzdqMKJ_TYZ1r-482" value="" style="group" vertex="1" connectable="0" parent="1">
          <mxGeometry x="5660" y="2080" width="620" height="220" as="geometry" />
        </mxCell>
        <mxCell id="ouFma8THzdqMKJ_TYZ1r-483" value="Web UI" style="rounded=1;whiteSpace=wrap;html=1;fontSize=9;fillColor=#647687;strokeColor=#314354;fontColor=#ffffff;" vertex="1" parent="ouFma8THzdqMKJ_TYZ1r-482">
          <mxGeometry x="14" y="118" width="100" height="34" as="geometry" />
        </mxCell>
        <mxCell id="ouFma8THzdqMKJ_TYZ1r-484" value="Flujo de operativa (Socket.IO Rooms)" style="text;html=1;strokeColor=none;fillColor=none;align=left;verticalAlign=top;whiteSpace=wrap;rounded=0;fontSize=12;fontStyle=1;fontColor=#FFFFFF;" vertex="1" parent="ouFma8THzdqMKJ_TYZ1r-482">
          <mxGeometry x="150" y="10" width="300" height="20" as="geometry" />
        </mxCell>
        <mxCell id="ouFma8THzdqMKJ_TYZ1r-485" value="Console UI" style="rounded=1;whiteSpace=wrap;html=1;fontSize=9;fillColor=#647687;strokeColor=#314354;fontColor=#ffffff;" vertex="1" parent="ouFma8THzdqMKJ_TYZ1r-482">
          <mxGeometry x="160" y="40" width="110" height="34" as="geometry" />
        </mxCell>
        <mxCell id="ouFma8THzdqMKJ_TYZ1r-486" value="Web UI" style="rounded=1;whiteSpace=wrap;html=1;fontSize=9;fillColor=#647687;strokeColor=#314354;fontColor=#ffffff;" vertex="1" parent="ouFma8THzdqMKJ_TYZ1r-482">
          <mxGeometry x="160" y="90" width="110" height="34" as="geometry" />
        </mxCell>
        <mxCell id="ouFma8THzdqMKJ_TYZ1r-487" value="Copilot" style="rounded=1;whiteSpace=wrap;html=1;fontSize=9;fillColor=#76608a;strokeColor=#432D57;fontColor=#ffffff;" vertex="1" parent="ouFma8THzdqMKJ_TYZ1r-482">
          <mxGeometry x="160" y="140" width="110" height="34" as="geometry" />
        </mxCell>
        <mxCell id="ouFma8THzdqMKJ_TYZ1r-488" value="room: ui-console" style="rounded=1;whiteSpace=wrap;html=1;fontSize=9;fillColor=#f8f9fa;strokeColor=#01579B;dashed=1;" vertex="1" parent="ouFma8THzdqMKJ_TYZ1r-482">
          <mxGeometry x="300" y="40" width="120" height="34" as="geometry" />
        </mxCell>
        <mxCell id="ouFma8THzdqMKJ_TYZ1r-489" value="room: ui-web" style="rounded=1;whiteSpace=wrap;html=1;fontSize=9;fillColor=#f8f9fa;strokeColor=#01579B;dashed=1;" vertex="1" parent="ouFma8THzdqMKJ_TYZ1r-482">
          <mxGeometry x="300" y="90" width="120" height="34" as="geometry" />
        </mxCell>
        <mxCell id="ouFma8THzdqMKJ_TYZ1r-490" value="room: copilot" style="rounded=1;whiteSpace=wrap;html=1;fontSize=9;fillColor=#f8f9fa;strokeColor=#01579B;dashed=1;" vertex="1" parent="ouFma8THzdqMKJ_TYZ1r-482">
          <mxGeometry x="300" y="140" width="120" height="34" as="geometry" />
        </mxCell>
        <mxCell id="ouFma8THzdqMKJ_TYZ1r-491" style="edgeStyle=orthogonalEdgeStyle;rounded=0;orthogonalLoop=1;jettySize=auto;html=1;strokeColor=#01579B;strokeWidth=1;dashed=1;startArrow=classic;startFill=1;endArrow=classic;endFill=1;" edge="1" parent="ouFma8THzdqMKJ_TYZ1r-482" source="ouFma8THzdqMKJ_TYZ1r-485" target="ouFma8THzdqMKJ_TYZ1r-488">
          <mxGeometry relative="1" as="geometry" />
        </mxCell>
        <mxCell id="ouFma8THzdqMKJ_TYZ1r-492" style="edgeStyle=orthogonalEdgeStyle;rounded=0;orthogonalLoop=1;jettySize=auto;html=1;strokeColor=#01579B;strokeWidth=1;dashed=1;startArrow=classic;startFill=1;endArrow=classic;endFill=1;" edge="1" parent="ouFma8THzdqMKJ_TYZ1r-482" source="ouFma8THzdqMKJ_TYZ1r-486" target="ouFma8THzdqMKJ_TYZ1r-489">
          <mxGeometry relative="1" as="geometry" />
        </mxCell>
        <mxCell id="ouFma8THzdqMKJ_TYZ1r-493" style="edgeStyle=orthogonalEdgeStyle;rounded=0;orthogonalLoop=1;jettySize=auto;html=1;strokeColor=#432D57;strokeWidth=1;dashed=1;startArrow=classic;startFill=1;endArrow=classic;endFill=1;" edge="1" parent="ouFma8THzdqMKJ_TYZ1r-482" source="ouFma8THzdqMKJ_TYZ1r-487" target="ouFma8THzdqMKJ_TYZ1r-490">
          <mxGeometry relative="1" as="geometry" />
        </mxCell>
        <mxCell id="ouFma8THzdqMKJ_TYZ1r-494" value="" style="group" vertex="1" connectable="0" parent="ouFma8THzdqMKJ_TYZ1r-482">
          <mxGeometry y="40" width="620" height="160" as="geometry" />
        </mxCell>
        <mxCell id="ouFma8THzdqMKJ_TYZ1r-495" value="" style="rounded=1;whiteSpace=wrap;html=1;fillColor=#F3F3F3;strokeColor=#9E9E9E;strokeWidth=2;dashed=1;" vertex="1" parent="ouFma8THzdqMKJ_TYZ1r-494">
          <mxGeometry width="620" height="160" as="geometry" />
        </mxCell>
        <mxCell id="ouFma8THzdqMKJ_TYZ1r-496" value="Flujo de Operativa" style="text;html=1;strokeColor=none;fillColor=none;align=center;verticalAlign=middle;whiteSpace=wrap;rounded=0;fontSize=14;fontStyle=1;" vertex="1" parent="ouFma8THzdqMKJ_TYZ1r-494">
          <mxGeometry x="230" y="8" width="160" height="20" as="geometry" />
        </mxCell>
        <mxCell id="ouFma8THzdqMKJ_TYZ1r-497" value="UIChannelMessage" style="shape=mxgraph.signs.tech.mail;html=1;pointerEvents=1;fillColor=#1ba1e2;strokeColor=#006EAF;verticalLabelPosition=bottom;verticalAlign=top;align=center;sketch=0;fontSize=9;fontColor=#ffffff;" vertex="1" parent="ouFma8THzdqMKJ_TYZ1r-494">
          <mxGeometry x="20" y="60" width="60" height="30" as="geometry" />
        </mxCell>
        <mxCell id="ouFma8THzdqMKJ_TYZ1r-498" value="Orchestrator\nClient" style="rounded=1;whiteSpace=wrap;html=1;fontSize=10;fillColor=#FFFFFF;strokeColor=#000000;" vertex="1" parent="ouFma8THzdqMKJ_TYZ1r-494">
          <mxGeometry x="100" y="55" width="120" height="40" as="geometry" />
        </mxCell>
        <mxCell id="ouFma8THzdqMKJ_TYZ1r-499" style="edgeStyle=orthogonalEdgeStyle;rounded=0;orthogonalLoop=1;jettySize=auto;html=1;strokeColor=#006EAF;strokeWidth=1;dashed=1;startArrow=classic;startFill=1;" edge="1" parent="ouFma8THzdqMKJ_TYZ1r-494" source="ouFma8THzdqMKJ_TYZ1r-497" target="ouFma8THzdqMKJ_TYZ1r-498">
          <mxGeometry relative="1" as="geometry" />
        </mxCell>
        <mxCell id="ouFma8THzdqMKJ_TYZ1r-500" value="AppChannelMessage" style="shape=mxgraph.signs.tech.mail;html=1;pointerEvents=1;fillColor=#60a917;strokeColor=#2D7600;verticalLabelPosition=bottom;verticalAlign=top;align=center;sketch=0;fontSize=9;fontColor=#ffffff;" vertex="1" parent="ouFma8THzdqMKJ_TYZ1r-494">
          <mxGeometry x="260" y="60" width="60" height="30" as="geometry" />
        </mxCell>
        <mxCell id="ouFma8THzdqMKJ_TYZ1r-501" value="App\n(AppMessage)" style="rounded=1;whiteSpace=wrap;html=1;fontSize=10;fillColor=#60a917;strokeColor=#2D7600;fontColor=#ffffff;" vertex="1" parent="ouFma8THzdqMKJ_TYZ1r-494">
          <mxGeometry x="340" y="55" width="120" height="40" as="geometry" />
        </mxCell>
        <mxCell id="ouFma8THzdqMKJ_TYZ1r-502" style="edgeStyle=orthogonalEdgeStyle;rounded=0;orthogonalLoop=1;jettySize=auto;html=1;strokeColor=#2D7600;strokeWidth=2;endArrow=classic;endFill=1;" edge="1" parent="ouFma8THzdqMKJ_TYZ1r-494" source="ouFma8THzdqMKJ_TYZ1r-500" target="ouFma8THzdqMKJ_TYZ1r-501">
          <mxGeometry relative="1" as="geometry" />
        </mxCell>
        <mxCell id="ouFma8THzdqMKJ_TYZ1r-503" value="SysChannelMessage" style="shape=mxgraph.signs.tech.mail;html=1;pointerEvents=1;fillColor=#FFE0B2;strokeColor=#FF6D00;verticalLabelPosition=bottom;verticalAlign=top;align=center;sketch=0;fontSize=9;" vertex="1" parent="ouFma8THzdqMKJ_TYZ1r-494">
          <mxGeometry x="480" y="60" width="60" height="30" as="geometry" />
        </mxCell>
        <mxCell id="ouFma8THzdqMKJ_TYZ1r-504" value="Orchestrator\nClient" style="rounded=1;whiteSpace=wrap;html=1;fontSize=10;fillColor=#FFFFFF;strokeColor=#000000;" vertex="1" parent="ouFma8THzdqMKJ_TYZ1r-494">
          <mxGeometry x="560" y="55" width="120" height="40" as="geometry" />
        </mxCell>
        <mxCell id="ouFma8THzdqMKJ_TYZ1r-505" style="edgeStyle=orthogonalEdgeStyle;rounded=0;orthogonalLoop=1;jettySize=auto;html=1;strokeColor=#FF6D00;strokeWidth=1;dashed=1;endArrow=classic;endFill=1;" edge="1" parent="ouFma8THzdqMKJ_TYZ1r-494" source="ouFma8THzdqMKJ_TYZ1r-503" target="ouFma8THzdqMKJ_TYZ1r-504">
          <mxGeometry relative="1" as="geometry" />
        </mxCell>
        <mxCell id="ouFma8THzdqMKJ_TYZ1r-506" value="" style="group" vertex="1" connectable="0" parent="1">
          <mxGeometry x="4180" y="2430" width="570" height="166" as="geometry" />
        </mxCell>
        <mxCell id="ouFma8THzdqMKJ_TYZ1r-507" value="Flujo de arranque (spawn)" style="text;html=1;strokeColor=none;fillColor=none;align=left;verticalAlign=top;whiteSpace=wrap;rounded=0;fontSize=12;fontStyle=1;fontColor=#FFFFFF;" vertex="1" parent="ouFma8THzdqMKJ_TYZ1r-506">
          <mxGeometry x="340" width="220" height="20" as="geometry" />
        </mxCell>
        <mxCell id="ouFma8THzdqMKJ_TYZ1r-508" value="MCPDriverAdapter" style="rounded=1;whiteSpace=wrap;html=1;fontSize=10;fillColor=#F3E5F5;strokeColor=#6A1B9A;" vertex="1" parent="ouFma8THzdqMKJ_TYZ1r-506">
          <mxGeometry x="350" y="50" width="110" height="40" as="geometry" />
        </mxCell>
        <mxCell id="ouFma8THzdqMKJ_TYZ1r-509" style="edgeStyle=orthogonalEdgeStyle;rounded=0;orthogonalLoop=1;jettySize=auto;html=1;strokeColor=#4CAF50;strokeWidth=2;endArrow=classic;endFill=1;" edge="1" parent="ouFma8THzdqMKJ_TYZ1r-506" source="ouFma8THzdqMKJ_TYZ1r-508">
          <mxGeometry relative="1" as="geometry">
            <mxPoint x="540" y="44" as="targetPoint" />
          </mxGeometry>
        </mxCell>
        <mxCell id="ouFma8THzdqMKJ_TYZ1r-510" value="Flujo de Arranque" style="text;html=1;strokeColor=none;fillColor=none;align=center;verticalAlign=middle;whiteSpace=wrap;rounded=0;fontSize=14;fontStyle=1;" vertex="1" parent="ouFma8THzdqMKJ_TYZ1r-506">
          <mxGeometry x="220" y="38" width="160" height="20" as="geometry" />
        </mxCell>
        <mxCell id="ouFma8THzdqMKJ_TYZ1r-511" value="MCPDriverAdapter" style="rounded=1;whiteSpace=wrap;html=1;fontSize=10;fillColor=#F3E5F5;strokeColor=#6A1B9A;fontStyle=1;" vertex="1" parent="ouFma8THzdqMKJ_TYZ1r-506">
          <mxGeometry y="75" width="120" height="50" as="geometry" />
        </mxCell>
        <mxCell id="ouFma8THzdqMKJ_TYZ1r-512" value="DevOps" style="rounded=1;whiteSpace=wrap;html=1;fontSize=10;fillColor=#E8F5E9;strokeColor=#4CAF50;" vertex="1" parent="ouFma8THzdqMKJ_TYZ1r-506">
          <mxGeometry x="130" y="70" width="80" height="36" as="geometry" />
        </mxCell>
        <mxCell id="ouFma8THzdqMKJ_TYZ1r-513" value="StateMachine" style="rounded=1;whiteSpace=wrap;html=1;fontSize=10;fillColor=#E8F5E9;strokeColor=#4CAF50;" vertex="1" parent="ouFma8THzdqMKJ_TYZ1r-506">
          <mxGeometry x="220" y="70" width="80" height="36" as="geometry" />
        </mxCell>
        <mxCell id="ouFma8THzdqMKJ_TYZ1r-514" value="WikiBrowser" style="rounded=1;whiteSpace=wrap;html=1;fontSize=10;fillColor=#fad9d5;strokeColor=#ae4132;" vertex="1" parent="ouFma8THzdqMKJ_TYZ1r-506">
          <mxGeometry x="310" y="70" width="80" height="36" as="geometry" />
        </mxCell>
        <mxCell id="ouFma8THzdqMKJ_TYZ1r-515" value="Console UI" style="rounded=1;whiteSpace=wrap;html=1;fontSize=10;fillColor=#647687;strokeColor=#314354;fontColor=#ffffff;" vertex="1" parent="ouFma8THzdqMKJ_TYZ1r-506">
          <mxGeometry x="400" y="70" width="80" height="36" as="geometry" />
        </mxCell>
        <mxCell id="ouFma8THzdqMKJ_TYZ1r-516" value="Web UI" style="rounded=1;whiteSpace=wrap;html=1;fontSize=10;fillColor=#647687;strokeColor=#314354;fontColor=#ffffff;" vertex="1" parent="ouFma8THzdqMKJ_TYZ1r-506">
          <mxGeometry x="490" y="70" width="80" height="36" as="geometry" />
        </mxCell>
        <mxCell id="ouFma8THzdqMKJ_TYZ1r-517" style="edgeStyle=orthogonalEdgeStyle;rounded=0;orthogonalLoop=1;jettySize=auto;html=1;strokeColor=#4CAF50;strokeWidth=3;endArrow=classic;endFill=1;" edge="1" parent="ouFma8THzdqMKJ_TYZ1r-506" source="ouFma8THzdqMKJ_TYZ1r-511" target="ouFma8THzdqMKJ_TYZ1r-512">
          <mxGeometry relative="1" as="geometry" />
        </mxCell>
        <mxCell id="ouFma8THzdqMKJ_TYZ1r-518" style="edgeStyle=orthogonalEdgeStyle;rounded=0;orthogonalLoop=1;jettySize=auto;html=1;strokeColor=#4CAF50;strokeWidth=3;endArrow=classic;endFill=1;" edge="1" parent="ouFma8THzdqMKJ_TYZ1r-506" source="ouFma8THzdqMKJ_TYZ1r-511" target="ouFma8THzdqMKJ_TYZ1r-513">
          <mxGeometry relative="1" as="geometry" />
        </mxCell>
        <mxCell id="ouFma8THzdqMKJ_TYZ1r-519" style="edgeStyle=orthogonalEdgeStyle;rounded=0;orthogonalLoop=1;jettySize=auto;html=1;strokeColor=#ae4132;strokeWidth=3;endArrow=classic;endFill=1;" edge="1" parent="ouFma8THzdqMKJ_TYZ1r-506" source="ouFma8THzdqMKJ_TYZ1r-511" target="ouFma8THzdqMKJ_TYZ1r-514">
          <mxGeometry relative="1" as="geometry" />
        </mxCell>
        <mxCell id="ouFma8THzdqMKJ_TYZ1r-520" style="edgeStyle=orthogonalEdgeStyle;rounded=0;orthogonalLoop=1;jettySize=auto;html=1;strokeColor=#314354;strokeWidth=3;endArrow=classic;endFill=1;" edge="1" parent="ouFma8THzdqMKJ_TYZ1r-506" source="ouFma8THzdqMKJ_TYZ1r-511" target="ouFma8THzdqMKJ_TYZ1r-515">
          <mxGeometry relative="1" as="geometry" />
        </mxCell>
        <mxCell id="ouFma8THzdqMKJ_TYZ1r-521" style="edgeStyle=orthogonalEdgeStyle;rounded=0;orthogonalLoop=1;jettySize=auto;html=1;strokeColor=#314354;strokeWidth=3;endArrow=classic;endFill=1;" edge="1" parent="ouFma8THzdqMKJ_TYZ1r-506" source="ouFma8THzdqMKJ_TYZ1r-511" target="ouFma8THzdqMKJ_TYZ1r-516">
          <mxGeometry relative="1" as="geometry" />
        </mxCell>
        <mxCell id="ouFma8THzdqMKJ_TYZ1r-522" value="Launcher" style="rounded=1;whiteSpace=wrap;html=1;fontSize=10;fillColor=#FFFAE3;strokeColor=#000000;fontStyle=1;" vertex="1" parent="ouFma8THzdqMKJ_TYZ1r-506">
          <mxGeometry y="130" width="120" height="36" as="geometry" />
        </mxCell>
        <mxCell id="ouFma8THzdqMKJ_TYZ1r-523" value="Runtime1" style="rounded=1;whiteSpace=wrap;html=1;fontSize=10;fillColor=#E5F5E0;strokeColor=#000000;" vertex="1" parent="ouFma8THzdqMKJ_TYZ1r-506">
          <mxGeometry x="220" y="130" width="80" height="30" as="geometry" />
        </mxCell>
        <mxCell id="ouFma8THzdqMKJ_TYZ1r-524" value="Runtime2" style="rounded=1;whiteSpace=wrap;html=1;fontSize=10;fillColor=#fad9d5;strokeColor=#ae4132;" vertex="1" parent="ouFma8THzdqMKJ_TYZ1r-506">
          <mxGeometry x="310" y="130" width="80" height="30" as="geometry" />
        </mxCell>
        <mxCell id="ouFma8THzdqMKJ_TYZ1r-525" value="Runtime3" style="rounded=1;whiteSpace=wrap;html=1;fontSize=10;fillColor=#E5F5E0;strokeColor=#000000;" vertex="1" parent="ouFma8THzdqMKJ_TYZ1r-506">
          <mxGeometry x="400" y="130" width="80" height="30" as="geometry" />
        </mxCell>
        <mxCell id="ouFma8THzdqMKJ_TYZ1r-526" style="edgeStyle=orthogonalEdgeStyle;rounded=0;orthogonalLoop=1;jettySize=auto;html=1;strokeColor=#FF6D00;strokeWidth=2;endArrow=classic;endFill=1;startArrow=classic;startFill=1;" edge="1" parent="ouFma8THzdqMKJ_TYZ1r-506" source="ouFma8THzdqMKJ_TYZ1r-522" target="ouFma8THzdqMKJ_TYZ1r-523">
          <mxGeometry relative="1" as="geometry" />
        </mxCell>
        <mxCell id="ouFma8THzdqMKJ_TYZ1r-527" style="edgeStyle=orthogonalEdgeStyle;rounded=0;orthogonalLoop=1;jettySize=auto;html=1;strokeColor=#FF6D00;strokeWidth=2;endArrow=classic;endFill=1;startArrow=classic;startFill=1;" edge="1" parent="ouFma8THzdqMKJ_TYZ1r-506" source="ouFma8THzdqMKJ_TYZ1r-522" target="ouFma8THzdqMKJ_TYZ1r-524">
          <mxGeometry relative="1" as="geometry" />
        </mxCell>
        <mxCell id="ouFma8THzdqMKJ_TYZ1r-528" style="edgeStyle=orthogonalEdgeStyle;rounded=0;orthogonalLoop=1;jettySize=auto;html=1;strokeColor=#FF6D00;strokeWidth=2;endArrow=classic;endFill=1;startArrow=classic;startFill=1;" edge="1" parent="ouFma8THzdqMKJ_TYZ1r-506" source="ouFma8THzdqMKJ_TYZ1r-522" target="ouFma8THzdqMKJ_TYZ1r-525">
          <mxGeometry relative="1" as="geometry" />
        </mxCell>
        <mxCell id="ouFma8THzdqMKJ_TYZ1r-595" value="" style="group" vertex="1" connectable="0" parent="1">
          <mxGeometry x="350" y="-3310" width="1480" height="660" as="geometry" />
        </mxCell>
        <mxCell id="ouFma8THzdqMKJ_TYZ1r-558" value="" style="group" vertex="1" connectable="0" parent="ouFma8THzdqMKJ_TYZ1r-595">
          <mxGeometry x="650" y="410" width="830" height="250" as="geometry" />
        </mxCell>
        <mxCell id="ouFma8THzdqMKJ_TYZ1r-559" value="Orchestrator&lt;br&gt;(RxJS + NodeJS)" style="rounded=1;whiteSpace=wrap;html=1;fontSize=12;fontColor=#000000;strokeColor=#000000;fillColor=#FFFFFF;" vertex="1" parent="ouFma8THzdqMKJ_TYZ1r-558">
          <mxGeometry x="360" y="180" width="140" height="70" as="geometry" />
        </mxCell>
        <mxCell id="ouFma8THzdqMKJ_TYZ1r-560" value="&lt;font style=&quot;color: light-dark(rgb(0, 0, 0), rgb(255, 244, 243));&quot;&gt;App&lt;br&gt;(AppMessage)&lt;/font&gt;" style="rounded=1;whiteSpace=wrap;html=1;fontSize=11;strokeColor=#2D7600;fillColor=#60a917;fontColor=#ffffff;" vertex="1" parent="ouFma8THzdqMKJ_TYZ1r-558">
          <mxGeometry x="150" y="190" width="120" height="50" as="geometry" />
        </mxCell>
        <mxCell id="ouFma8THzdqMKJ_TYZ1r-561" value="Sys&lt;br&gt;(SysMessage)" style="rounded=1;whiteSpace=wrap;html=1;fontSize=10;fontColor=default;strokeColor=#FF6D00;fillColor=#FFE0B2;align=center;verticalAlign=top;spacingLeft=5;spacingTop=5;fontFamily=Helvetica;gradientColor=none;" vertex="1" parent="ouFma8THzdqMKJ_TYZ1r-558">
          <mxGeometry x="370" width="120" height="50" as="geometry" />
        </mxCell>
        <mxCell id="ouFma8THzdqMKJ_TYZ1r-562" value="&lt;font style=&quot;color: light-dark(rgb(0, 0, 0), rgb(255, 250, 248));&quot;&gt;UI&lt;br&gt;(UIMessage)&lt;/font&gt;" style="rounded=1;whiteSpace=wrap;html=1;fontSize=11;fontColor=#ffffff;strokeColor=#006EAF;fillColor=#1ba1e2;" vertex="1" parent="ouFma8THzdqMKJ_TYZ1r-558">
          <mxGeometry x="590" y="190" width="120" height="50" as="geometry" />
        </mxCell>
        <mxCell id="ouFma8THzdqMKJ_TYZ1r-563" style="edgeStyle=orthogonalEdgeStyle;elbow=horizontal;strokeColor=#000000;dashed=1;" edge="1" parent="ouFma8THzdqMKJ_TYZ1r-558" source="ouFma8THzdqMKJ_TYZ1r-559" target="ouFma8THzdqMKJ_TYZ1r-560">
          <mxGeometry relative="1" as="geometry" />
        </mxCell>
        <mxCell id="ouFma8THzdqMKJ_TYZ1r-564" style="edgeStyle=orthogonalEdgeStyle;elbow=horizontal;strokeColor=#000000;dashed=1;" edge="1" parent="ouFma8THzdqMKJ_TYZ1r-558" source="ouFma8THzdqMKJ_TYZ1r-559" target="ouFma8THzdqMKJ_TYZ1r-561">
          <mxGeometry relative="1" as="geometry" />
        </mxCell>
        <mxCell id="ouFma8THzdqMKJ_TYZ1r-565" style="edgeStyle=orthogonalEdgeStyle;elbow=horizontal;strokeColor=#000000;dashed=1;" edge="1" parent="ouFma8THzdqMKJ_TYZ1r-558" source="ouFma8THzdqMKJ_TYZ1r-559" target="ouFma8THzdqMKJ_TYZ1r-562">
          <mxGeometry relative="1" as="geometry" />
        </mxCell>
        <mxCell id="ouFma8THzdqMKJ_TYZ1r-566" value="" style="group" vertex="1" connectable="0" parent="ouFma8THzdqMKJ_TYZ1r-595">
          <mxGeometry x="850" y="30" width="516" height="340.05999999999995" as="geometry" />
        </mxCell>
        <mxCell id="ouFma8THzdqMKJ_TYZ1r-567" style="edgeStyle=orthogonalEdgeStyle;rounded=0;orthogonalLoop=1;jettySize=auto;html=1;strokeColor=#FF6D00;strokeWidth=2;endArrow=classic;endFill=1;" edge="1" parent="ouFma8THzdqMKJ_TYZ1r-566">
          <mxGeometry relative="1" as="geometry">
            <Array as="points">
              <mxPoint x="309.03" y="30.059999999999945" />
              <mxPoint x="229.02999999999997" y="30.059999999999945" />
              <mxPoint x="229.02999999999997" y="60.059999999999945" />
            </Array>
            <mxPoint x="329.03" y="30.059999999999945" as="sourcePoint" />
            <mxPoint x="309.03" y="60.059999999999945" as="targetPoint" />
          </mxGeometry>
        </mxCell>
        <mxCell id="ouFma8THzdqMKJ_TYZ1r-568" value="&lt;font style=&quot;font-size: 8px;&quot;&gt;SysOutMessage&lt;/font&gt;" style="edgeLabel;html=1;align=center;verticalAlign=middle;resizable=0;points=[];fontSize=11;fontStyle=1;labelBackgroundColor=#FFFFFF;" vertex="1" connectable="0" parent="ouFma8THzdqMKJ_TYZ1r-567">
          <mxGeometry x="-0.2" y="1" relative="1" as="geometry">
            <mxPoint y="-10" as="offset" />
          </mxGeometry>
        </mxCell>
        <mxCell id="ouFma8THzdqMKJ_TYZ1r-569" style="edgeStyle=orthogonalEdgeStyle;rounded=0;orthogonalLoop=1;jettySize=auto;html=1;strokeColor=#01579B;strokeWidth=2;startArrow=none;startFill=0;endArrow=classic;endFill=1;" edge="1" parent="ouFma8THzdqMKJ_TYZ1r-566">
          <mxGeometry relative="1" as="geometry">
            <Array as="points">
              <mxPoint x="388.97" />
              <mxPoint x="448.97" />
              <mxPoint x="448.97" y="65" />
            </Array>
            <mxPoint x="388.97" y="55" as="sourcePoint" />
            <mxPoint x="428.97" y="65" as="targetPoint" />
          </mxGeometry>
        </mxCell>
        <mxCell id="ouFma8THzdqMKJ_TYZ1r-570" value="&lt;font style=&quot;font-size: 8px;&quot;&gt;UIOutMessage&lt;/font&gt;" style="edgeLabel;html=1;align=center;verticalAlign=middle;resizable=0;points=[];fontSize=10;fontStyle=1;labelBackgroundColor=#FFFFFF;" vertex="1" connectable="0" parent="ouFma8THzdqMKJ_TYZ1r-569">
          <mxGeometry relative="1" as="geometry">
            <mxPoint x="-30" as="offset" />
          </mxGeometry>
        </mxCell>
        <mxCell id="ouFma8THzdqMKJ_TYZ1r-571" value="" style="group" vertex="1" connectable="0" parent="ouFma8THzdqMKJ_TYZ1r-566">
          <mxGeometry y="70.05999999999995" width="516" height="270" as="geometry" />
        </mxCell>
        <mxCell id="ouFma8THzdqMKJ_TYZ1r-572" value="&lt;font style=&quot;font-size: 9px;&quot;&gt;SysChannelMessage&lt;/font&gt;" style="shape=mxgraph.signs.tech.mail;html=1;pointerEvents=1;fillColor=#FFF9C4;strokeColor=#F57C00;verticalLabelPosition=bottom;verticalAlign=top;align=center;sketch=0;" vertex="1" parent="ouFma8THzdqMKJ_TYZ1r-571">
          <mxGeometry x="229" y="30" width="80" height="40" as="geometry" />
        </mxCell>
        <mxCell id="ouFma8THzdqMKJ_TYZ1r-573" style="edgeStyle=orthogonalEdgeStyle;rounded=0;orthogonalLoop=1;jettySize=auto;html=1;strokeColor=#F57C00;strokeWidth=1;dashed=1;endArrow=none;endFill=0;startArrow=classic;startFill=1;" edge="1" parent="ouFma8THzdqMKJ_TYZ1r-571" source="ouFma8THzdqMKJ_TYZ1r-572">
          <mxGeometry relative="1" as="geometry">
            <mxPoint x="180" y="-0.05999999999994543" as="targetPoint" />
          </mxGeometry>
        </mxCell>
        <mxCell id="ouFma8THzdqMKJ_TYZ1r-574" value="&lt;font style=&quot;font-size: 8px;&quot;&gt;SysMessage&lt;/font&gt;" style="edgeLabel;html=1;align=center;verticalAlign=middle;resizable=0;points=[];" vertex="1" connectable="0" parent="ouFma8THzdqMKJ_TYZ1r-573">
          <mxGeometry x="-0.3879" y="-1" relative="1" as="geometry">
            <mxPoint as="offset" />
          </mxGeometry>
        </mxCell>
        <mxCell id="ouFma8THzdqMKJ_TYZ1r-575" value="&lt;font style=&quot;font-size: 9px;&quot;&gt;AppChannelMessage&lt;/font&gt;" style="shape=mxgraph.signs.tech.mail;html=1;pointerEvents=1;fillColor=#C8E6C9;strokeColor=#2E7D32;verticalLabelPosition=bottom;verticalAlign=top;align=center;sketch=0;" vertex="1" parent="ouFma8THzdqMKJ_TYZ1r-571">
          <mxGeometry x="79" y="30" width="80" height="40" as="geometry" />
        </mxCell>
        <mxCell id="ouFma8THzdqMKJ_TYZ1r-576" style="edgeStyle=orthogonalEdgeStyle;rounded=0;orthogonalLoop=1;jettySize=auto;html=1;strokeColor=#2E7D32;strokeWidth=1;dashed=1;endArrow=none;endFill=0;startArrow=classic;startFill=1;" edge="1" parent="ouFma8THzdqMKJ_TYZ1r-571" source="ouFma8THzdqMKJ_TYZ1r-575">
          <mxGeometry relative="1" as="geometry">
            <mxPoint x="10" y="9.940000000000055" as="targetPoint" />
          </mxGeometry>
        </mxCell>
        <mxCell id="ouFma8THzdqMKJ_TYZ1r-577" value="&lt;font style=&quot;font-size: 8px;&quot;&gt;AppInMessage&lt;/font&gt;" style="edgeLabel;html=1;align=center;verticalAlign=middle;resizable=0;points=[];" vertex="1" connectable="0" parent="ouFma8THzdqMKJ_TYZ1r-576">
          <mxGeometry x="-0.3656" relative="1" as="geometry">
            <mxPoint as="offset" />
          </mxGeometry>
        </mxCell>
        <mxCell id="ouFma8THzdqMKJ_TYZ1r-578" value="&lt;font style=&quot;font-size: 9px;&quot;&gt;UIChannelMessage&lt;/font&gt;" style="shape=mxgraph.signs.tech.mail;html=1;pointerEvents=1;fillColor=#B3E5FC;strokeColor=#0277BD;verticalLabelPosition=bottom;verticalAlign=top;align=center;sketch=0;" vertex="1" parent="ouFma8THzdqMKJ_TYZ1r-571">
          <mxGeometry x="379" y="30" width="80" height="40" as="geometry" />
        </mxCell>
        <mxCell id="ouFma8THzdqMKJ_TYZ1r-579" style="edgeStyle=orthogonalEdgeStyle;rounded=0;orthogonalLoop=1;jettySize=auto;html=1;strokeColor=#0277BD;strokeWidth=1;dashed=1;startArrow=classic;startFill=1;endArrow=none;endFill=0;" edge="1" parent="ouFma8THzdqMKJ_TYZ1r-571" source="ouFma8THzdqMKJ_TYZ1r-578">
          <mxGeometry relative="1" as="geometry">
            <mxPoint x="540" y="-0.05999999999994543" as="targetPoint" />
          </mxGeometry>
        </mxCell>
        <mxCell id="ouFma8THzdqMKJ_TYZ1r-580" value="&lt;font style=&quot;font-size: 8px;&quot;&gt;UIInMessage&lt;/font&gt;" style="edgeLabel;html=1;align=center;verticalAlign=middle;resizable=0;points=[];" vertex="1" connectable="0" parent="ouFma8THzdqMKJ_TYZ1r-579">
          <mxGeometry x="-0.4127" relative="1" as="geometry">
            <mxPoint as="offset" />
          </mxGeometry>
        </mxCell>
        <mxCell id="ouFma8THzdqMKJ_TYZ1r-581" value="&lt;b&gt;Canal SYS&lt;/b&gt;&lt;br&gt;1. MCPLauncher inicia&lt;br&gt;2. Spawn DevOpsServer&lt;br&gt;3. Socket.IO sync&lt;br&gt;4. Orchestrator routing&lt;br&gt;5. DevOps ready signal" style="text;html=1;strokeColor=#FF6D00;fillColor=#FFE0B2;align=left;verticalAlign=top;whiteSpace=wrap;rounded=1;fontSize=10;spacingLeft=5;spacingTop=5;" vertex="1" parent="ouFma8THzdqMKJ_TYZ1r-571">
          <mxGeometry x="188" y="160" width="140" height="100" as="geometry" />
        </mxCell>
        <mxCell id="ouFma8THzdqMKJ_TYZ1r-582" value="&lt;font style=&quot;color: light-dark(rgb(0, 0, 0), rgb(255, 249, 248));&quot;&gt;&lt;b&gt;Canal APP&lt;/b&gt;&lt;br&gt;1. MCPLauncher inicia&lt;br&gt;2. Spawn DevOpsServer&lt;br&gt;3. Socket.IO sync&lt;br&gt;4. Orchestrator routing&lt;br&gt;5. DevOps ready signal&lt;/font&gt;" style="text;html=1;strokeColor=#005700;fillColor=#008a00;align=left;verticalAlign=top;whiteSpace=wrap;rounded=1;fontSize=10;spacingLeft=5;spacingTop=5;fontColor=#ffffff;" vertex="1" parent="ouFma8THzdqMKJ_TYZ1r-571">
          <mxGeometry y="160" width="140" height="100" as="geometry" />
        </mxCell>
        <mxCell id="ouFma8THzdqMKJ_TYZ1r-583" value="&lt;font style=&quot;color: light-dark(rgb(0, 0, 0), rgb(255, 255, 255));&quot;&gt;&lt;b&gt;Canal UI&lt;/b&gt;&lt;br&gt;1. MCPLauncher inicia&lt;br&gt;2. Spawn DevOpsServer&lt;br&gt;3. Socket.IO sync&lt;br&gt;4. Orchestrator routing&lt;br&gt;5. DevOps ready signal&lt;/font&gt;" style="text;html=1;strokeColor=#006EAF;fillColor=#1ba1e2;align=left;verticalAlign=top;whiteSpace=wrap;rounded=1;fontSize=10;spacingLeft=5;spacingTop=5;fontColor=#ffffff;" vertex="1" parent="ouFma8THzdqMKJ_TYZ1r-571">
          <mxGeometry x="376" y="160" width="140" height="100" as="geometry" />
        </mxCell>
        <mxCell id="ouFma8THzdqMKJ_TYZ1r-584" style="edgeStyle=orthogonalEdgeStyle;rounded=0;orthogonalLoop=1;jettySize=auto;html=1;strokeColor=#2D7600;strokeWidth=2;endArrow=classic;endFill=1;fillColor=#60a917;" edge="1" parent="ouFma8THzdqMKJ_TYZ1r-566">
          <mxGeometry relative="1" as="geometry">
            <Array as="points">
              <mxPoint x="160" y="20.059999999999945" />
              <mxPoint x="70" y="20.059999999999945" />
              <mxPoint x="70" y="50.059999999999945" />
            </Array>
            <mxPoint x="160" y="30.059999999999945" as="sourcePoint" />
            <mxPoint x="150" y="50.059999999999945" as="targetPoint" />
          </mxGeometry>
        </mxCell>
        <mxCell id="ouFma8THzdqMKJ_TYZ1r-585" value="&lt;font style=&quot;font-size: 8px;&quot;&gt;AppOutMessage&lt;/font&gt;" style="edgeLabel;html=1;align=center;verticalAlign=middle;resizable=0;points=[];fontSize=11;fontStyle=1;labelBackgroundColor=#FFFFFF;" vertex="1" connectable="0" parent="ouFma8THzdqMKJ_TYZ1r-584">
          <mxGeometry x="-0.2" y="1" relative="1" as="geometry">
            <mxPoint y="-10" as="offset" />
          </mxGeometry>
        </mxCell>
        <mxCell id="ouFma8THzdqMKJ_TYZ1r-586" value="" style="group" vertex="1" connectable="0" parent="ouFma8THzdqMKJ_TYZ1r-595">
          <mxGeometry width="400" height="400" as="geometry" />
        </mxCell>
        <mxCell id="ouFma8THzdqMKJ_TYZ1r-587" value="" style="rounded=1;whiteSpace=wrap;html=1;fillColor=#FFF2CC;strokeColor=#D6B656;strokeWidth=3;dashed=1;" vertex="1" parent="ouFma8THzdqMKJ_TYZ1r-586">
          <mxGeometry width="400" height="400" as="geometry" />
        </mxCell>
        <mxCell id="ouFma8THzdqMKJ_TYZ1r-588" value="MCPLauncherServer" style="text;html=1;strokeColor=none;fillColor=none;align=center;verticalAlign=middle;whiteSpace=wrap;rounded=0;fontSize=16;fontStyle=1;" vertex="1" parent="ouFma8THzdqMKJ_TYZ1r-586">
          <mxGeometry x="120" y="15" width="160" height="30" as="geometry" />
        </mxCell>
        <mxCell id="ouFma8THzdqMKJ_TYZ1r-589" value="Orchestrator&lt;br&gt;(RxJS)" style="rounded=1;whiteSpace=wrap;html=1;fontSize=12;fillColor=#FFFFFF;strokeColor=#000000;fontStyle=1;" vertex="1" parent="ouFma8THzdqMKJ_TYZ1r-586">
          <mxGeometry x="130" y="60" width="140" height="60" as="geometry" />
        </mxCell>
        <mxCell id="ouFma8THzdqMKJ_TYZ1r-590" value="app" style="rounded=1;whiteSpace=wrap;html=1;fontSize=11;fillColor=#60a917;strokeColor=#2D7600;fontColor=#ffffff;fontStyle=1;" vertex="1" parent="ouFma8THzdqMKJ_TYZ1r-586">
          <mxGeometry x="50" y="150" width="70" height="35" as="geometry" />
        </mxCell>
        <mxCell id="ouFma8THzdqMKJ_TYZ1r-591" value="sys" style="rounded=1;whiteSpace=wrap;html=1;fontSize=11;fillColor=#FFE0B2;strokeColor=#FF6D00;fontStyle=1;" vertex="1" parent="ouFma8THzdqMKJ_TYZ1r-586">
          <mxGeometry x="165" y="150" width="70" height="35" as="geometry" />
        </mxCell>
        <mxCell id="ouFma8THzdqMKJ_TYZ1r-592" value="ui" style="rounded=1;whiteSpace=wrap;html=1;fontSize=11;fillColor=#1ba1e2;strokeColor=#006EAF;fontColor=#ffffff;fontStyle=1;" vertex="1" parent="ouFma8THzdqMKJ_TYZ1r-586">
          <mxGeometry x="280" y="150" width="70" height="35" as="geometry" />
        </mxCell>
        <mxCell id="ouFma8THzdqMKJ_TYZ1r-593" value="Socket.IO Client&lt;br&gt;(AlephScript Rooms)" style="rounded=1;whiteSpace=wrap;html=1;fontSize=11;fillColor=#E1F5FE;strokeColor=#01579B;fontStyle=1;" vertex="1" parent="ouFma8THzdqMKJ_TYZ1r-586">
          <mxGeometry x="130" y="220" width="140" height="60" as="geometry" />
        </mxCell>
        <mxCell id="ouFma8THzdqMKJ_TYZ1r-594" value="MCPDriverAdapter" style="rounded=1;whiteSpace=wrap;html=1;fontSize=11;fillColor=#F3E5F5;strokeColor=#6A1B9A;fontStyle=1;" vertex="1" parent="ouFma8THzdqMKJ_TYZ1r-586">
          <mxGeometry x="130" y="310" width="140" height="60" as="geometry" />
        </mxCell>
      </root>
    </mxGraphModel>
  </diagram>
</mxfile>
